<svg width="795" height="568" viewBox="0 0 795 568" fill="none" xmlns="http://www.w3.org/2000/svg">
<rect x="14.9297" y="43.5" width="779" height="483" fill="white" stroke="black"/>
<path d="M15.4292 206C58.1335 204.927 98.4989 212.292 138.321 227.753C178.142 243.214 214.502 266.421 245.294 296.029C276.086 325.638 300.699 361.06 317.708 400.245C334.717 439.431 343.829 483.286 344.429 526L130.929 526C130.726 511.55 127.404 498.603 121.65 485.347C115.896 472.091 107.57 460.108 97.1529 450.091C86.7361 440.075 74.4359 432.224 60.9644 426.994C47.4929 421.764 29.8759 419.137 15.4292 419.5L15.4292 206Z" fill="#ECE6E8"/>
<path d="M479.429 526C476.259 483.4 482.457 444.619 495.942 404.085C509.427 363.552 530.818 326.096 558.878 293.886C586.937 261.676 621.107 235.352 659.409 216.437C697.711 197.523 750.797 185.699 793.429 183V290V396.5C779.007 397.413 767.001 401.677 754.044 408.075C741.086 414.474 729.527 423.379 720.035 434.276C710.542 445.172 703.306 457.843 698.744 471.555C694.182 485.268 691.857 511.589 692.929 526H585.929H479.429Z" fill="#ECE6E8"/>
<line x1="14.4297" y1="541.5" x2="129.43" y2="541.5" stroke="#7D7D7D"/>
<line x1="131.43" y1="541.5" x2="344.43" y2="541.5" stroke="#7D7D7D"/>
<line y1="-0.5" x2="779.977" y2="-0.5" transform="matrix(-1 0.000207478 -0.00276076 -0.999996 794.407 28.9194)" stroke="#7D7D7D"/>
<line x1="130.93" y1="542" x2="130.93" y2="534" stroke="#7D7D7D"/>
<line x1="128.93" y1="542" x2="128.93" y2="534" stroke="#7D7D7D"/>
<line x1="343.93" y1="542" x2="343.93" y2="534" stroke="#7D7D7D"/>
<path d="M57.8097 556.425C58.1397 556.255 58.5147 556.17 58.9347 556.17V558.33C59.0347 558.03 59.1697 557.745 59.3397 557.475C59.5097 557.195 59.7097 556.95 59.9397 556.74C60.1797 556.53 60.4447 556.365 60.7347 556.245C61.0247 556.115 61.3447 556.05 61.6947 556.05C61.9647 556.05 62.1997 556.095 62.3997 556.185C62.5997 556.265 62.7647 556.37 62.8947 556.5C63.0247 556.62 63.1197 556.76 63.1797 556.92C63.2497 557.08 63.2897 557.235 63.2997 557.385C63.2197 557.525 63.0797 557.645 62.8797 557.745C62.6897 557.845 62.4997 557.905 62.3097 557.925C62.2597 557.655 62.1497 557.415 61.9797 557.205C61.8097 556.995 61.5247 556.89 61.1247 556.89C60.8347 556.89 60.5647 556.975 60.3147 557.145C60.0747 557.315 59.8597 557.555 59.6697 557.865C59.4797 558.165 59.3247 558.525 59.2047 558.945C59.0947 559.365 59.0247 559.825 58.9947 560.325V563.88C58.8547 563.96 58.6697 564.015 58.4397 564.045C58.2197 564.085 58.0097 564.105 57.8097 564.105V556.425ZM71.368 563.445C71.338 563.495 71.288 563.555 71.218 563.625C71.158 563.695 71.088 563.765 71.008 563.835C70.928 563.895 70.838 563.95 70.738 564C70.648 564.05 70.563 564.085 70.483 564.105C70.163 564.085 69.893 563.965 69.673 563.745C69.453 563.515 69.333 563.215 69.313 562.845C69.233 562.995 69.113 563.155 68.953 563.325C68.793 563.485 68.598 563.635 68.368 563.775C68.148 563.905 67.893 564.01 67.603 564.09C67.313 564.18 66.998 564.225 66.658 564.225C65.948 564.225 65.383 564.045 64.963 563.685C64.553 563.325 64.348 562.845 64.348 562.245C64.348 561.625 64.583 561.105 65.053 560.685C65.523 560.265 66.328 559.955 67.468 559.755L69.253 559.44V558.855C69.253 558.135 69.083 557.585 68.743 557.205C68.413 556.825 67.918 556.635 67.258 556.635C66.848 556.635 66.498 556.74 66.208 556.95C65.928 557.15 65.788 557.45 65.788 557.85C65.788 558.03 65.848 558.19 65.968 558.33C65.878 558.45 65.733 558.56 65.533 558.66C65.333 558.76 65.128 558.82 64.918 558.84C64.868 558.79 64.808 558.715 64.738 558.615C64.668 558.515 64.633 558.38 64.633 558.21C64.633 557.9 64.723 557.61 64.903 557.34C65.083 557.07 65.318 556.84 65.608 556.65C65.898 556.45 66.233 556.295 66.613 556.185C66.993 556.075 67.388 556.02 67.798 556.02C68.758 556.02 69.438 556.24 69.838 556.68C70.238 557.11 70.438 557.715 70.438 558.495V562.26C70.438 562.67 70.528 562.955 70.708 563.115C70.888 563.265 71.098 563.355 71.338 563.385L71.368 563.445ZM67.138 563.43C67.658 563.43 68.098 563.31 68.458 563.07C68.828 562.83 69.093 562.52 69.253 562.14V559.98L67.243 560.34C66.703 560.44 66.288 560.61 65.998 560.85C65.718 561.09 65.578 561.435 65.578 561.885C65.578 562.385 65.728 562.77 66.028 563.04C66.338 563.3 66.708 563.43 67.138 563.43ZM74.8834 553.815C74.7934 553.975 74.6534 554.145 74.4634 554.325C74.2734 554.495 74.1034 554.615 73.9534 554.685C73.8034 554.615 73.6334 554.495 73.4434 554.325C73.2534 554.145 73.1084 553.975 73.0084 553.815C73.1084 553.645 73.2534 553.47 73.4434 553.29C73.6334 553.11 73.8034 552.98 73.9534 552.9C74.1034 552.98 74.2734 553.11 74.4634 553.29C74.6634 553.47 74.8034 553.645 74.8834 553.815ZM73.3234 556.425C73.4934 556.335 73.6784 556.27 73.8784 556.23C74.0884 556.19 74.2984 556.17 74.5084 556.17V563.88C74.3684 563.96 74.1834 564.015 73.9534 564.045C73.7334 564.085 73.5234 564.105 73.3234 564.105V556.425ZM78.0121 559.815C78.0121 560.445 78.0871 560.995 78.2371 561.465C78.3971 561.935 78.6021 562.33 78.8521 562.65C79.1121 562.96 79.4071 563.195 79.7371 563.355C80.0771 563.515 80.4321 563.595 80.8021 563.595C81.6021 563.595 82.2121 563.33 82.6321 562.8C83.0521 562.26 83.2621 561.45 83.2621 560.37C83.2621 559.85 83.2021 559.365 83.0821 558.915C82.9621 558.465 82.7821 558.075 82.5421 557.745C82.3121 557.415 82.0271 557.155 81.6871 556.965C81.3471 556.775 80.9571 556.68 80.5171 556.68C80.1971 556.68 79.8871 556.74 79.5871 556.86C79.2871 556.98 79.0221 557.17 78.7921 557.43C78.5621 557.68 78.3721 558.005 78.2221 558.405C78.0821 558.795 78.0121 559.265 78.0121 559.815ZM76.7521 560.28C76.7521 559.67 76.8621 559.105 77.0821 558.585C77.3021 558.055 77.5971 557.605 77.9671 557.235C78.3471 556.855 78.7871 556.56 79.2871 556.35C79.7971 556.13 80.3371 556.02 80.9071 556.02C81.5271 556.02 82.0621 556.125 82.5121 556.335C82.9721 556.545 83.3471 556.825 83.6371 557.175C83.9371 557.525 84.1571 557.935 84.2971 558.405C84.4471 558.875 84.5221 559.37 84.5221 559.89C84.5221 560.5 84.4271 561.07 84.2371 561.6C84.0471 562.13 83.7721 562.595 83.4121 562.995C83.0621 563.385 82.6321 563.695 82.1221 563.925C81.6121 564.155 81.0321 564.27 80.3821 564.27C79.9021 564.27 79.4421 564.18 79.0021 564C78.5621 563.82 78.1721 563.56 77.8321 563.22C77.5021 562.88 77.2371 562.465 77.0371 561.975C76.8471 561.475 76.7521 560.91 76.7521 560.28Z" fill="black"/>
<path d="M193.9 557.79C193.84 557.9 193.72 558.015 193.54 558.135C193.37 558.255 193.155 558.33 192.895 558.36C192.865 558.19 192.805 558.01 192.715 557.82C192.635 557.62 192.515 557.44 192.355 557.28C192.195 557.11 191.995 556.975 191.755 556.875C191.515 556.765 191.225 556.71 190.885 556.71C190.605 556.71 190.32 556.765 190.03 556.875C189.75 556.985 189.495 557.165 189.265 557.415C189.035 557.665 188.845 557.985 188.695 558.375C188.555 558.765 188.485 559.24 188.485 559.8C188.485 560.4 188.565 560.925 188.725 561.375C188.885 561.815 189.1 562.185 189.37 562.485C189.64 562.775 189.95 562.995 190.3 563.145C190.66 563.285 191.035 563.355 191.425 563.355C191.935 563.355 192.365 563.28 192.715 563.13C193.075 562.97 193.38 562.745 193.63 562.455C193.69 562.465 193.75 562.5 193.81 562.56C193.87 562.62 193.91 562.675 193.93 562.725C193.85 562.865 193.725 563.025 193.555 563.205C193.395 563.375 193.19 563.535 192.94 563.685C192.69 563.835 192.4 563.96 192.07 564.06C191.74 564.17 191.365 564.225 190.945 564.225C190.445 564.225 189.97 564.14 189.52 563.97C189.08 563.8 188.69 563.545 188.35 563.205C188.02 562.865 187.755 562.45 187.555 561.96C187.365 561.47 187.27 560.9 187.27 560.25C187.27 559.68 187.375 559.145 187.585 558.645C187.795 558.135 188.08 557.69 188.44 557.31C188.81 556.92 189.245 556.615 189.745 556.395C190.245 556.165 190.785 556.05 191.365 556.05C191.845 556.05 192.245 556.12 192.565 556.26C192.885 556.39 193.14 556.55 193.33 556.74C193.53 556.92 193.675 557.11 193.765 557.31C193.855 557.51 193.9 557.67 193.9 557.79ZM196.572 559.815C196.572 560.445 196.647 560.995 196.797 561.465C196.957 561.935 197.162 562.33 197.412 562.65C197.672 562.96 197.967 563.195 198.297 563.355C198.637 563.515 198.992 563.595 199.362 563.595C200.162 563.595 200.772 563.33 201.192 562.8C201.612 562.26 201.822 561.45 201.822 560.37C201.822 559.85 201.762 559.365 201.642 558.915C201.522 558.465 201.342 558.075 201.102 557.745C200.872 557.415 200.587 557.155 200.247 556.965C199.907 556.775 199.517 556.68 199.077 556.68C198.757 556.68 198.447 556.74 198.147 556.86C197.847 556.98 197.582 557.17 197.352 557.43C197.122 557.68 196.932 558.005 196.782 558.405C196.642 558.795 196.572 559.265 196.572 559.815ZM195.312 560.28C195.312 559.67 195.422 559.105 195.642 558.585C195.862 558.055 196.157 557.605 196.527 557.235C196.907 556.855 197.347 556.56 197.847 556.35C198.357 556.13 198.897 556.02 199.467 556.02C200.087 556.02 200.622 556.125 201.072 556.335C201.532 556.545 201.907 556.825 202.197 557.175C202.497 557.525 202.717 557.935 202.857 558.405C203.007 558.875 203.082 559.37 203.082 559.89C203.082 560.5 202.987 561.07 202.797 561.6C202.607 562.13 202.332 562.595 201.972 562.995C201.622 563.385 201.192 563.695 200.682 563.925C200.172 564.155 199.592 564.27 198.942 564.27C198.462 564.27 198.002 564.18 197.562 564C197.122 563.82 196.732 563.56 196.392 563.22C196.062 562.88 195.797 562.465 195.597 561.975C195.407 561.475 195.312 560.91 195.312 560.28ZM210.521 559.29C210.521 558.47 210.356 557.865 210.026 557.475C209.706 557.075 209.241 556.875 208.631 556.875C208.151 556.875 207.721 557.02 207.341 557.31C206.961 557.6 206.666 557.945 206.456 558.345V563.88C206.316 563.96 206.131 564.015 205.901 564.045C205.681 564.085 205.471 564.105 205.271 564.105V556.425C205.601 556.255 205.971 556.17 206.381 556.17V557.565C206.491 557.395 206.631 557.22 206.801 557.04C206.981 556.85 207.186 556.68 207.416 556.53C207.656 556.38 207.921 556.26 208.211 556.17C208.501 556.07 208.816 556.02 209.156 556.02C209.776 556.02 210.281 556.185 210.671 556.515C211.071 556.835 211.341 557.225 211.481 557.685C211.601 557.525 211.751 557.35 211.931 557.16C212.121 556.96 212.336 556.775 212.576 556.605C212.816 556.435 213.081 556.295 213.371 556.185C213.671 556.075 213.991 556.02 214.331 556.02C215.091 556.02 215.706 556.26 216.176 556.74C216.656 557.21 216.896 557.905 216.896 558.825V563.88C216.756 563.96 216.571 564.015 216.341 564.045C216.121 564.085 215.911 564.105 215.711 564.105V559.29C215.711 557.68 215.086 556.875 213.836 556.875C213.426 556.875 213.026 557.015 212.636 557.295C212.256 557.565 211.946 557.905 211.706 558.315V563.88C211.566 563.96 211.381 564.015 211.151 564.045C210.931 564.085 210.721 564.105 210.521 564.105V559.29ZM219.626 556.425C219.796 556.335 219.981 556.27 220.181 556.23C220.391 556.19 220.601 556.17 220.811 556.17V557.505C220.951 557.335 221.121 557.165 221.321 556.995C221.521 556.815 221.746 556.655 221.996 556.515C222.246 556.365 222.521 556.245 222.821 556.155C223.121 556.065 223.441 556.02 223.781 556.02C224.301 556.02 224.761 556.11 225.161 556.29C225.561 556.46 225.896 556.705 226.166 557.025C226.436 557.335 226.641 557.705 226.781 558.135C226.921 558.565 226.991 559.035 226.991 559.545C226.991 560.205 226.876 560.825 226.646 561.405C226.416 561.975 226.096 562.475 225.686 562.905C225.286 563.325 224.806 563.66 224.246 563.91C223.696 564.15 223.096 564.27 222.446 564.27C222.096 564.27 221.786 564.23 221.516 564.15C221.246 564.08 221.011 563.99 220.811 563.88V567.645C220.671 567.725 220.486 567.78 220.256 567.81C220.036 567.85 219.826 567.87 219.626 567.87V556.425ZM223.211 556.875C222.741 556.875 222.286 557.015 221.846 557.295C221.416 557.575 221.071 557.93 220.811 558.36V562.455C221.071 562.825 221.396 563.1 221.786 563.28C222.176 563.45 222.601 563.535 223.061 563.535C223.441 563.535 223.791 563.465 224.111 563.325C224.441 563.185 224.726 562.975 224.966 562.695C225.206 562.405 225.396 562.045 225.536 561.615C225.676 561.185 225.746 560.68 225.746 560.1C225.746 559.03 225.526 558.225 225.086 557.685C224.646 557.145 224.021 556.875 223.211 556.875ZM229.206 556.425C229.536 556.255 229.911 556.17 230.331 556.17V558.33C230.431 558.03 230.566 557.745 230.736 557.475C230.906 557.195 231.106 556.95 231.336 556.74C231.576 556.53 231.841 556.365 232.131 556.245C232.421 556.115 232.741 556.05 233.091 556.05C233.361 556.05 233.596 556.095 233.796 556.185C233.996 556.265 234.161 556.37 234.291 556.5C234.421 556.62 234.516 556.76 234.576 556.92C234.646 557.08 234.686 557.235 234.696 557.385C234.616 557.525 234.476 557.645 234.276 557.745C234.086 557.845 233.896 557.905 233.706 557.925C233.656 557.655 233.546 557.415 233.376 557.205C233.206 556.995 232.921 556.89 232.521 556.89C232.231 556.89 231.961 556.975 231.711 557.145C231.471 557.315 231.256 557.555 231.066 557.865C230.876 558.165 230.721 558.525 230.601 558.945C230.491 559.365 230.421 559.825 230.391 560.325V563.88C230.251 563.96 230.066 564.015 229.836 564.045C229.616 564.085 229.406 564.105 229.206 564.105V556.425ZM237.96 553.815C237.87 553.975 237.73 554.145 237.54 554.325C237.35 554.495 237.18 554.615 237.03 554.685C236.88 554.615 236.71 554.495 236.52 554.325C236.33 554.145 236.185 553.975 236.085 553.815C236.185 553.645 236.33 553.47 236.52 553.29C236.71 553.11 236.88 552.98 237.03 552.9C237.18 552.98 237.35 553.11 237.54 553.29C237.74 553.47 237.88 553.645 237.96 553.815ZM236.4 556.425C236.57 556.335 236.755 556.27 236.955 556.23C237.165 556.19 237.375 556.17 237.585 556.17V563.88C237.445 563.96 237.26 564.015 237.03 564.045C236.81 564.085 236.6 564.105 236.4 564.105V556.425ZM245.618 559.29C245.618 558.47 245.453 557.865 245.123 557.475C244.803 557.075 244.338 556.875 243.728 556.875C243.248 556.875 242.818 557.02 242.438 557.31C242.058 557.6 241.763 557.945 241.553 558.345V563.88C241.413 563.96 241.228 564.015 240.998 564.045C240.778 564.085 240.568 564.105 240.368 564.105V556.425C240.698 556.255 241.068 556.17 241.478 556.17V557.565C241.588 557.395 241.728 557.22 241.898 557.04C242.078 556.85 242.283 556.68 242.513 556.53C242.753 556.38 243.018 556.26 243.308 556.17C243.598 556.07 243.913 556.02 244.253 556.02C244.873 556.02 245.378 556.185 245.768 556.515C246.168 556.835 246.438 557.225 246.578 557.685C246.698 557.525 246.848 557.35 247.028 557.16C247.218 556.96 247.433 556.775 247.673 556.605C247.913 556.435 248.178 556.295 248.468 556.185C248.768 556.075 249.088 556.02 249.428 556.02C250.188 556.02 250.803 556.26 251.273 556.74C251.753 557.21 251.993 557.905 251.993 558.825V563.88C251.853 563.96 251.668 564.015 251.438 564.045C251.218 564.085 251.008 564.105 250.808 564.105V559.29C250.808 557.68 250.183 556.875 248.933 556.875C248.523 556.875 248.123 557.015 247.733 557.295C247.353 557.565 247.043 557.905 246.803 558.315V563.88C246.663 563.96 246.478 564.015 246.248 564.045C246.028 564.085 245.818 564.105 245.618 564.105V559.29ZM255.384 560.13C255.414 560.67 255.509 561.145 255.669 561.555C255.839 561.955 256.054 562.29 256.314 562.56C256.574 562.83 256.874 563.035 257.214 563.175C257.564 563.305 257.934 563.37 258.324 563.37C258.814 563.37 259.234 563.305 259.584 563.175C259.944 563.045 260.269 562.84 260.559 562.56C260.699 562.59 260.794 562.685 260.844 562.845C260.774 562.955 260.659 563.09 260.499 563.25C260.349 563.41 260.144 563.565 259.884 563.715C259.634 563.865 259.329 563.99 258.969 564.09C258.619 564.2 258.209 564.255 257.739 564.255C257.239 564.255 256.774 564.165 256.344 563.985C255.914 563.805 255.539 563.545 255.219 563.205C254.899 562.865 254.644 562.445 254.454 561.945C254.274 561.445 254.184 560.88 254.184 560.25C254.184 559.67 254.284 559.125 254.484 558.615C254.684 558.095 254.954 557.645 255.294 557.265C255.644 556.885 256.049 556.585 256.509 556.365C256.979 556.135 257.479 556.02 258.009 556.02C258.579 556.02 259.049 556.115 259.419 556.305C259.789 556.495 260.079 556.74 260.289 557.04C260.509 557.34 260.659 557.67 260.739 558.03C260.829 558.39 260.874 558.74 260.874 559.08C260.794 559.2 260.684 559.305 260.544 559.395C260.414 559.485 260.269 559.555 260.109 559.605L255.384 560.13ZM257.619 556.695C257.309 556.695 257.019 556.75 256.749 556.86C256.479 556.97 256.244 557.14 256.044 557.37C255.844 557.6 255.679 557.895 255.549 558.255C255.429 558.615 255.364 559.05 255.354 559.56L259.584 559.125C259.594 559.075 259.599 559.025 259.599 558.975C259.599 558.925 259.599 558.88 259.599 558.84C259.599 558.53 259.559 558.245 259.479 557.985C259.399 557.725 259.274 557.5 259.104 557.31C258.944 557.12 258.739 556.97 258.489 556.86C258.249 556.75 257.959 556.695 257.619 556.695ZM268.639 559.32C268.639 558.47 268.464 557.85 268.114 557.46C267.764 557.06 267.269 556.86 266.629 556.86C266.399 556.86 266.169 556.905 265.939 556.995C265.719 557.075 265.504 557.185 265.294 557.325C265.094 557.465 264.904 557.63 264.724 557.82C264.544 558 264.384 558.19 264.244 558.39V563.88C264.104 563.96 263.919 564.015 263.689 564.045C263.469 564.085 263.259 564.105 263.059 564.105V556.425C263.389 556.255 263.759 556.17 264.169 556.17V557.655C264.299 557.485 264.464 557.305 264.664 557.115C264.874 556.915 265.104 556.735 265.354 556.575C265.614 556.415 265.894 556.285 266.194 556.185C266.504 556.075 266.834 556.02 267.184 556.02C267.994 556.02 268.634 556.265 269.104 556.755C269.584 557.245 269.824 557.945 269.824 558.855V563.88C269.684 563.96 269.499 564.015 269.269 564.045C269.049 564.085 268.839 564.105 268.639 564.105V559.32ZM271.501 556.785C271.581 556.675 271.706 556.575 271.876 556.485C272.056 556.385 272.251 556.335 272.461 556.335H272.941V554.175C273.101 554.045 273.286 553.95 273.496 553.89C273.716 553.82 273.926 553.785 274.126 553.785V556.335H277.066C277.056 556.505 277.006 556.65 276.916 556.77C276.836 556.88 276.731 556.935 276.601 556.935H274.126V561.855C274.126 562.175 274.161 562.435 274.231 562.635C274.311 562.825 274.416 562.975 274.546 563.085C274.676 563.195 274.826 563.27 274.996 563.31C275.166 563.35 275.341 563.37 275.521 563.37C275.851 563.37 276.126 563.305 276.346 563.175C276.566 563.045 276.746 562.91 276.886 562.77C277.026 562.81 277.116 562.895 277.156 563.025C277.106 563.105 277.026 563.21 276.916 563.34C276.806 563.47 276.661 563.6 276.481 563.73C276.301 563.85 276.086 563.955 275.836 564.045C275.586 564.135 275.306 564.18 274.996 564.18C274.716 564.18 274.451 564.145 274.201 564.075C273.951 564.005 273.731 563.89 273.541 563.73C273.361 563.57 273.216 563.355 273.106 563.085C272.996 562.815 272.941 562.48 272.941 562.08V556.935H271.501V556.785ZM279.511 559.815C279.511 560.445 279.586 560.995 279.736 561.465C279.896 561.935 280.101 562.33 280.351 562.65C280.611 562.96 280.906 563.195 281.236 563.355C281.576 563.515 281.931 563.595 282.301 563.595C283.101 563.595 283.711 563.33 284.131 562.8C284.551 562.26 284.761 561.45 284.761 560.37C284.761 559.85 284.701 559.365 284.581 558.915C284.461 558.465 284.281 558.075 284.041 557.745C283.811 557.415 283.526 557.155 283.186 556.965C282.846 556.775 282.456 556.68 282.016 556.68C281.696 556.68 281.386 556.74 281.086 556.86C280.786 556.98 280.521 557.17 280.291 557.43C280.061 557.68 279.871 558.005 279.721 558.405C279.581 558.795 279.511 559.265 279.511 559.815ZM278.251 560.28C278.251 559.67 278.361 559.105 278.581 558.585C278.801 558.055 279.096 557.605 279.466 557.235C279.846 556.855 280.286 556.56 280.786 556.35C281.296 556.13 281.836 556.02 282.406 556.02C283.026 556.02 283.561 556.125 284.011 556.335C284.471 556.545 284.846 556.825 285.136 557.175C285.436 557.525 285.656 557.935 285.796 558.405C285.946 558.875 286.021 559.37 286.021 559.89C286.021 560.5 285.926 561.07 285.736 561.6C285.546 562.13 285.271 562.595 284.911 562.995C284.561 563.385 284.131 563.695 283.621 563.925C283.111 564.155 282.531 564.27 281.881 564.27C281.401 564.27 280.941 564.18 280.501 564C280.061 563.82 279.671 563.56 279.331 563.22C279.001 562.88 278.736 562.465 278.536 561.975C278.346 561.475 278.251 560.91 278.251 560.28Z" fill="black"/>
<path d="M383.08 11.68C383.5 11.53 384.005 11.385 384.595 11.245C385.185 11.105 385.83 11.035 386.53 11.035C387.21 11.035 387.78 11.11 388.24 11.26C388.7 11.41 389.07 11.605 389.35 11.845C389.63 12.085 389.83 12.36 389.95 12.67C390.07 12.98 390.13 13.29 390.13 13.6C390.13 13.95 390.07 14.275 389.95 14.575C389.84 14.865 389.69 15.125 389.5 15.355C389.31 15.575 389.09 15.765 388.84 15.925C388.59 16.085 388.325 16.21 388.045 16.3C388.935 16.47 389.595 16.785 390.025 17.245C390.455 17.705 390.67 18.265 390.67 18.925C390.67 19.435 390.55 19.9 390.31 20.32C390.07 20.73 389.735 21.08 389.305 21.37C388.875 21.66 388.36 21.88 387.76 22.03C387.17 22.19 386.525 22.27 385.825 22.27C385.315 22.27 384.83 22.245 384.37 22.195C383.91 22.145 383.48 22.08 383.08 22V11.68ZM386.065 16.84C385.695 16.84 385.365 16.85 385.075 16.87C384.795 16.88 384.54 16.905 384.31 16.945V21.265C384.6 21.355 384.93 21.43 385.3 21.49C385.68 21.54 386.045 21.565 386.395 21.565C386.825 21.565 387.215 21.515 387.565 21.415C387.925 21.315 388.235 21.17 388.495 20.98C388.755 20.78 388.955 20.535 389.095 20.245C389.245 19.945 389.32 19.595 389.32 19.195C389.32 18.755 389.23 18.385 389.05 18.085C388.87 17.785 388.625 17.545 388.315 17.365C388.015 17.175 387.67 17.04 387.28 16.96C386.89 16.88 386.485 16.84 386.065 16.84ZM386.62 16.15C386.93 16.14 387.22 16.085 387.49 15.985C387.76 15.875 387.99 15.73 388.18 15.55C388.38 15.36 388.535 15.135 388.645 14.875C388.765 14.605 388.825 14.3 388.825 13.96C388.825 13.25 388.595 12.7 388.135 12.31C387.685 11.92 386.98 11.725 386.02 11.725C385.69 11.725 385.38 11.745 385.09 11.785C384.8 11.815 384.54 11.855 384.31 11.905V16.255C384.57 16.225 384.87 16.2 385.21 16.18C385.55 16.16 385.945 16.15 386.395 16.15H386.62ZM393.74 17.815C393.74 18.445 393.815 18.995 393.965 19.465C394.125 19.935 394.33 20.33 394.58 20.65C394.84 20.96 395.135 21.195 395.465 21.355C395.805 21.515 396.16 21.595 396.53 21.595C397.33 21.595 397.94 21.33 398.36 20.8C398.78 20.26 398.99 19.45 398.99 18.37C398.99 17.85 398.93 17.365 398.81 16.915C398.69 16.465 398.51 16.075 398.27 15.745C398.04 15.415 397.755 15.155 397.415 14.965C397.075 14.775 396.685 14.68 396.245 14.68C395.925 14.68 395.615 14.74 395.315 14.86C395.015 14.98 394.75 15.17 394.52 15.43C394.29 15.68 394.1 16.005 393.95 16.405C393.81 16.795 393.74 17.265 393.74 17.815ZM392.48 18.28C392.48 17.67 392.59 17.105 392.81 16.585C393.03 16.055 393.325 15.605 393.695 15.235C394.075 14.855 394.515 14.56 395.015 14.35C395.525 14.13 396.065 14.02 396.635 14.02C397.255 14.02 397.79 14.125 398.24 14.335C398.7 14.545 399.075 14.825 399.365 15.175C399.665 15.525 399.885 15.935 400.025 16.405C400.175 16.875 400.25 17.37 400.25 17.89C400.25 18.5 400.155 19.07 399.965 19.6C399.775 20.13 399.5 20.595 399.14 20.995C398.79 21.385 398.36 21.695 397.85 21.925C397.34 22.155 396.76 22.27 396.11 22.27C395.63 22.27 395.17 22.18 394.73 22C394.29 21.82 393.9 21.56 393.56 21.22C393.23 20.88 392.965 20.465 392.765 19.975C392.575 19.475 392.48 18.91 392.48 18.28ZM402.439 14.425C402.769 14.255 403.144 14.17 403.564 14.17V16.33C403.664 16.03 403.799 15.745 403.969 15.475C404.139 15.195 404.339 14.95 404.569 14.74C404.809 14.53 405.074 14.365 405.364 14.245C405.654 14.115 405.974 14.05 406.324 14.05C406.594 14.05 406.829 14.095 407.029 14.185C407.229 14.265 407.394 14.37 407.524 14.5C407.654 14.62 407.749 14.76 407.809 14.92C407.879 15.08 407.919 15.235 407.929 15.385C407.849 15.525 407.709 15.645 407.509 15.745C407.319 15.845 407.129 15.905 406.939 15.925C406.889 15.655 406.779 15.415 406.609 15.205C406.439 14.995 406.154 14.89 405.754 14.89C405.464 14.89 405.194 14.975 404.944 15.145C404.704 15.315 404.489 15.555 404.299 15.865C404.109 16.165 403.954 16.525 403.834 16.945C403.724 17.365 403.654 17.825 403.624 18.325V21.88C403.484 21.96 403.299 22.015 403.069 22.045C402.849 22.085 402.639 22.105 402.439 22.105V14.425ZM414.785 20.965C414.675 21.115 414.54 21.265 414.38 21.415C414.22 21.565 414.025 21.7 413.795 21.82C413.575 21.94 413.32 22.04 413.03 22.12C412.74 22.2 412.415 22.24 412.055 22.24C411.615 22.24 411.195 22.16 410.795 22C410.395 21.84 410.035 21.605 409.715 21.295C409.405 20.975 409.155 20.585 408.965 20.125C408.785 19.655 408.695 19.115 408.695 18.505C408.695 17.905 408.805 17.335 409.025 16.795C409.255 16.245 409.565 15.765 409.955 15.355C410.345 14.945 410.8 14.62 411.32 14.38C411.85 14.14 412.415 14.02 413.015 14.02C413.415 14.02 413.755 14.07 414.035 14.17C414.325 14.26 414.575 14.375 414.785 14.515V10.675C414.955 10.585 415.14 10.52 415.34 10.48C415.55 10.44 415.76 10.42 415.97 10.42V21.88C415.83 21.96 415.645 22.015 415.415 22.045C415.195 22.085 414.985 22.105 414.785 22.105V20.965ZM412.61 21.385C413.17 21.385 413.63 21.255 413.99 20.995C414.36 20.725 414.625 20.415 414.785 20.065V16C414.705 15.84 414.6 15.685 414.47 15.535C414.35 15.375 414.2 15.235 414.02 15.115C413.84 14.985 413.63 14.885 413.39 14.815C413.16 14.735 412.9 14.695 412.61 14.695C412.28 14.695 411.955 14.76 411.635 14.89C411.315 15.02 411.025 15.22 410.765 15.49C410.515 15.75 410.31 16.085 410.15 16.495C410 16.905 409.925 17.385 409.925 17.935C409.925 18.565 410.005 19.1 410.165 19.54C410.335 19.97 410.545 20.325 410.795 20.605C411.055 20.875 411.345 21.075 411.665 21.205C411.985 21.325 412.3 21.385 412.61 21.385ZM425.357 21.445C425.327 21.495 425.277 21.555 425.207 21.625C425.147 21.695 425.077 21.765 424.997 21.835C424.917 21.895 424.827 21.95 424.727 22C424.637 22.05 424.552 22.085 424.472 22.105C424.152 22.085 423.882 21.965 423.662 21.745C423.442 21.515 423.322 21.215 423.302 20.845C423.222 20.995 423.102 21.155 422.942 21.325C422.782 21.485 422.587 21.635 422.357 21.775C422.137 21.905 421.882 22.01 421.592 22.09C421.302 22.18 420.987 22.225 420.647 22.225C419.937 22.225 419.372 22.045 418.952 21.685C418.542 21.325 418.337 20.845 418.337 20.245C418.337 19.625 418.572 19.105 419.042 18.685C419.512 18.265 420.317 17.955 421.457 17.755L423.242 17.44V16.855C423.242 16.135 423.072 15.585 422.732 15.205C422.402 14.825 421.907 14.635 421.247 14.635C420.837 14.635 420.487 14.74 420.197 14.95C419.917 15.15 419.777 15.45 419.777 15.85C419.777 16.03 419.837 16.19 419.957 16.33C419.867 16.45 419.722 16.56 419.522 16.66C419.322 16.76 419.117 16.82 418.907 16.84C418.857 16.79 418.797 16.715 418.727 16.615C418.657 16.515 418.622 16.38 418.622 16.21C418.622 15.9 418.712 15.61 418.892 15.34C419.072 15.07 419.307 14.84 419.597 14.65C419.887 14.45 420.222 14.295 420.602 14.185C420.982 14.075 421.377 14.02 421.787 14.02C422.747 14.02 423.427 14.24 423.827 14.68C424.227 15.11 424.427 15.715 424.427 16.495V20.26C424.427 20.67 424.517 20.955 424.697 21.115C424.877 21.265 425.087 21.355 425.327 21.385L425.357 21.445ZM421.127 21.43C421.647 21.43 422.087 21.31 422.447 21.07C422.817 20.83 423.082 20.52 423.242 20.14V17.98L421.232 18.34C420.692 18.44 420.277 18.61 419.987 18.85C419.707 19.09 419.567 19.435 419.567 19.885C419.567 20.385 419.717 20.77 420.017 21.04C420.327 21.3 420.697 21.43 421.127 21.43Z" fill="black"/>
</svg>
