<svg width="795" height="547" viewBox="0 0 795 547" fill="none" xmlns="http://www.w3.org/2000/svg">
<path d="M16.5 30.5H794.5V513.5H16.5V30.5Z" fill="white" stroke="#B6B6B6"/>
<path d="M17.2902 196.068C59.7621 194.517 106.352 199.916 146.134 214.93C185.916 229.944 222.337 252.742 253.288 282.003C284.239 311.265 309.105 346.41 326.447 385.402C343.789 424.394 352.348 470.596 353.404 513.299L141.986 513.238C141.629 498.792 138.185 485.883 132.318 472.692C126.451 459.501 118.039 447.612 107.569 437.713C97.0982 427.814 84.7772 420.102 71.3192 415.022C57.8612 409.943 31.368 406.475 17 407L17.2693 302.568L17.2902 196.068Z" fill="#ECE6E8"/>
<line x1="139.896" y1="529" x2="139.896" y2="521" stroke="#7D7D7D"/>
<line x1="36.5" y1="529" x2="36.5" y2="521" stroke="#7D7D7D"/>
<line x1="352.896" y1="529" x2="352.896" y2="521" stroke="#7D7D7D"/>
<line x1="146.5" y1="529" x2="146.5" y2="521" stroke="#7D7D7D"/>
<line x1="541.967" y1="30.5" x2="747.967" y2="30.5" stroke="white"/>
<path d="M624.847 8.9C625.073 8.78 625.32 8.69333 625.587 8.64C625.867 8.58667 626.147 8.56 626.427 8.56V15.4C626.613 15.16 626.833 14.92 627.087 14.68C627.353 14.44 627.653 14.2267 627.987 14.04C628.32 13.84 628.687 13.68 629.087 13.56C629.5 13.4267 629.94 13.36 630.407 13.36C631.073 13.36 631.667 13.48 632.187 13.72C632.72 13.96 633.173 14.2933 633.547 14.72C633.92 15.1467 634.2 15.6533 634.387 16.24C634.587 16.8133 634.687 17.4333 634.687 18.1C634.687 18.9667 634.54 19.78 634.247 20.54C633.953 21.2867 633.54 21.94 633.007 22.5C632.487 23.06 631.853 23.5067 631.107 23.84C630.373 24.16 629.56 24.32 628.667 24.32C627.76 24.32 626.993 24.22 626.367 24.02C625.74 23.82 625.233 23.5867 624.847 23.32V8.9ZM629.667 14.48C628.96 14.48 628.32 14.6933 627.747 15.12C627.173 15.5333 626.733 16.0467 626.427 16.66V22.54C626.747 22.7933 627.153 23 627.647 23.16C628.153 23.32 628.72 23.4 629.347 23.4C629.853 23.4 630.327 23.3067 630.767 23.12C631.22 22.92 631.613 22.6333 631.947 22.26C632.28 21.8867 632.54 21.42 632.727 20.86C632.927 20.3 633.027 19.6533 633.027 18.92C633.027 17.5067 632.727 16.4133 632.127 15.64C631.527 14.8667 630.707 14.48 629.667 14.48ZM638.599 18.42C638.599 19.26 638.699 19.9933 638.899 20.62C639.112 21.2467 639.385 21.7733 639.719 22.2C640.065 22.6133 640.459 22.9267 640.899 23.14C641.352 23.3533 641.825 23.46 642.319 23.46C643.385 23.46 644.199 23.1067 644.759 22.4C645.319 21.68 645.599 20.6 645.599 19.16C645.599 18.4667 645.519 17.82 645.359 17.22C645.199 16.62 644.959 16.1 644.639 15.66C644.332 15.22 643.952 14.8733 643.499 14.62C643.045 14.3667 642.525 14.24 641.939 14.24C641.512 14.24 641.099 14.32 640.699 14.48C640.299 14.64 639.945 14.8933 639.639 15.24C639.332 15.5733 639.079 16.0067 638.879 16.54C638.692 17.06 638.599 17.6867 638.599 18.42ZM636.919 19.04C636.919 18.2267 637.065 17.4733 637.359 16.78C637.652 16.0733 638.045 15.4733 638.539 14.98C639.045 14.4733 639.632 14.08 640.299 13.8C640.979 13.5067 641.699 13.36 642.459 13.36C643.285 13.36 643.999 13.5 644.599 13.78C645.212 14.06 645.712 14.4333 646.099 14.9C646.499 15.3667 646.792 15.9133 646.979 16.54C647.179 17.1667 647.279 17.8267 647.279 18.52C647.279 19.3333 647.152 20.0933 646.899 20.8C646.645 21.5067 646.279 22.1267 645.799 22.66C645.332 23.18 644.759 23.5933 644.079 23.9C643.399 24.2067 642.625 24.36 641.759 24.36C641.119 24.36 640.505 24.24 639.919 24C639.332 23.76 638.812 23.4133 638.359 22.96C637.919 22.5067 637.565 21.9533 637.299 21.3C637.045 20.6333 636.919 19.88 636.919 19.04ZM650.197 13.9C650.637 13.6733 651.137 13.56 651.697 13.56V16.44C651.831 16.04 652.011 15.66 652.237 15.3C652.464 14.9267 652.731 14.6 653.037 14.32C653.357 14.04 653.711 13.82 654.097 13.66C654.484 13.4867 654.911 13.4 655.377 13.4C655.737 13.4 656.051 13.46 656.317 13.58C656.584 13.6867 656.804 13.8267 656.977 14C657.151 14.16 657.277 14.3467 657.357 14.56C657.451 14.7733 657.504 14.98 657.517 15.18C657.411 15.3667 657.224 15.5267 656.957 15.66C656.704 15.7933 656.451 15.8733 656.197 15.9C656.131 15.54 655.984 15.22 655.757 14.94C655.531 14.66 655.151 14.52 654.617 14.52C654.231 14.52 653.871 14.6333 653.537 14.86C653.217 15.0867 652.931 15.4067 652.677 15.82C652.424 16.22 652.217 16.7 652.057 17.26C651.911 17.82 651.817 18.4333 651.777 19.1V23.84C651.591 23.9467 651.344 24.02 651.037 24.06C650.744 24.1133 650.464 24.14 650.197 24.14V13.9ZM666.66 22.62C666.513 22.82 666.333 23.02 666.12 23.22C665.906 23.42 665.646 23.6 665.34 23.76C665.046 23.92 664.706 24.0533 664.32 24.16C663.933 24.2667 663.5 24.32 663.02 24.32C662.433 24.32 661.873 24.2133 661.34 24C660.806 23.7867 660.326 23.4733 659.9 23.06C659.486 22.6333 659.153 22.1133 658.9 21.5C658.66 20.8733 658.54 20.1533 658.54 19.34C658.54 18.54 658.686 17.78 658.98 17.06C659.286 16.3267 659.7 15.6867 660.22 15.14C660.74 14.5933 661.346 14.16 662.04 13.84C662.746 13.52 663.5 13.36 664.3 13.36C664.833 13.36 665.286 13.4267 665.66 13.56C666.046 13.68 666.38 13.8333 666.66 14.02V8.9C666.886 8.78 667.133 8.69333 667.4 8.64C667.68 8.58667 667.96 8.56 668.24 8.56V23.84C668.053 23.9467 667.806 24.02 667.5 24.06C667.206 24.1133 666.926 24.14 666.66 24.14V22.62ZM663.76 23.18C664.506 23.18 665.12 23.0067 665.6 22.66C666.093 22.3 666.446 21.8867 666.66 21.42V16C666.553 15.7867 666.413 15.58 666.24 15.38C666.08 15.1667 665.88 14.98 665.64 14.82C665.4 14.6467 665.12 14.5133 664.8 14.42C664.493 14.3133 664.146 14.26 663.76 14.26C663.32 14.26 662.886 14.3467 662.46 14.52C662.033 14.6933 661.646 14.96 661.3 15.32C660.966 15.6667 660.693 16.1133 660.48 16.66C660.28 17.2067 660.18 17.8467 660.18 18.58C660.18 19.42 660.286 20.1333 660.5 20.72C660.726 21.2933 661.006 21.7667 661.34 22.14C661.686 22.5 662.073 22.7667 662.5 22.94C662.926 23.1 663.346 23.18 663.76 23.18ZM680.755 23.26C680.715 23.3267 680.649 23.4067 680.555 23.5C680.475 23.5933 680.382 23.6867 680.275 23.78C680.169 23.86 680.049 23.9333 679.915 24C679.795 24.0667 679.682 24.1133 679.575 24.14C679.149 24.1133 678.789 23.9533 678.495 23.66C678.202 23.3533 678.042 22.9533 678.015 22.46C677.909 22.66 677.749 22.8733 677.535 23.1C677.322 23.3133 677.062 23.5133 676.755 23.7C676.462 23.8733 676.122 24.0133 675.735 24.12C675.349 24.24 674.929 24.3 674.475 24.3C673.529 24.3 672.775 24.06 672.215 23.58C671.669 23.1 671.395 22.46 671.395 21.66C671.395 20.8333 671.709 20.14 672.335 19.58C672.962 19.02 674.035 18.6067 675.555 18.34L677.935 17.92V17.14C677.935 16.18 677.709 15.4467 677.255 14.94C676.815 14.4333 676.155 14.18 675.275 14.18C674.729 14.18 674.262 14.32 673.875 14.6C673.502 14.8667 673.315 15.2667 673.315 15.8C673.315 16.04 673.395 16.2533 673.555 16.44C673.435 16.6 673.242 16.7467 672.975 16.88C672.709 17.0133 672.435 17.0933 672.155 17.12C672.089 17.0533 672.009 16.9533 671.915 16.82C671.822 16.6867 671.775 16.5067 671.775 16.28C671.775 15.8667 671.895 15.48 672.135 15.12C672.375 14.76 672.689 14.4533 673.075 14.2C673.462 13.9333 673.909 13.7267 674.415 13.58C674.922 13.4333 675.449 13.36 675.995 13.36C677.275 13.36 678.182 13.6533 678.715 14.24C679.249 14.8133 679.515 15.62 679.515 16.66V21.68C679.515 22.2267 679.635 22.6067 679.875 22.82C680.115 23.02 680.395 23.14 680.715 23.18L680.755 23.26ZM675.115 23.24C675.809 23.24 676.395 23.08 676.875 22.76C677.369 22.44 677.722 22.0267 677.935 21.52V18.64L675.255 19.12C674.535 19.2533 673.982 19.48 673.595 19.8C673.222 20.12 673.035 20.58 673.035 21.18C673.035 21.8467 673.235 22.36 673.635 22.72C674.049 23.0667 674.542 23.24 675.115 23.24Z" fill="black"/>
<line x1="541.967" y1="513.5" x2="747.967" y2="513.5" stroke="white"/>
<path d="M624.847 491.9C625.073 491.78 625.32 491.693 625.587 491.64C625.867 491.587 626.147 491.56 626.427 491.56V498.4C626.613 498.16 626.833 497.92 627.087 497.68C627.353 497.44 627.653 497.227 627.987 497.04C628.32 496.84 628.687 496.68 629.087 496.56C629.5 496.427 629.94 496.36 630.407 496.36C631.073 496.36 631.667 496.48 632.187 496.72C632.72 496.96 633.173 497.293 633.547 497.72C633.92 498.147 634.2 498.653 634.387 499.24C634.587 499.813 634.687 500.433 634.687 501.1C634.687 501.967 634.54 502.78 634.247 503.54C633.953 504.287 633.54 504.94 633.007 505.5C632.487 506.06 631.853 506.507 631.107 506.84C630.373 507.16 629.56 507.32 628.667 507.32C627.76 507.32 626.993 507.22 626.367 507.02C625.74 506.82 625.233 506.587 624.847 506.32V491.9ZM629.667 497.48C628.96 497.48 628.32 497.693 627.747 498.12C627.173 498.533 626.733 499.047 626.427 499.66V505.54C626.747 505.793 627.153 506 627.647 506.16C628.153 506.32 628.72 506.4 629.347 506.4C629.853 506.4 630.327 506.307 630.767 506.12C631.22 505.92 631.613 505.633 631.947 505.26C632.28 504.887 632.54 504.42 632.727 503.86C632.927 503.3 633.027 502.653 633.027 501.92C633.027 500.507 632.727 499.413 632.127 498.64C631.527 497.867 630.707 497.48 629.667 497.48ZM638.599 501.42C638.599 502.26 638.699 502.993 638.899 503.62C639.112 504.247 639.385 504.773 639.719 505.2C640.065 505.613 640.459 505.927 640.899 506.14C641.352 506.353 641.825 506.46 642.319 506.46C643.385 506.46 644.199 506.107 644.759 505.4C645.319 504.68 645.599 503.6 645.599 502.16C645.599 501.467 645.519 500.82 645.359 500.22C645.199 499.62 644.959 499.1 644.639 498.66C644.332 498.22 643.952 497.873 643.499 497.62C643.045 497.367 642.525 497.24 641.939 497.24C641.512 497.24 641.099 497.32 640.699 497.48C640.299 497.64 639.945 497.893 639.639 498.24C639.332 498.573 639.079 499.007 638.879 499.54C638.692 500.06 638.599 500.687 638.599 501.42ZM636.919 502.04C636.919 501.227 637.065 500.473 637.359 499.78C637.652 499.073 638.045 498.473 638.539 497.98C639.045 497.473 639.632 497.08 640.299 496.8C640.979 496.507 641.699 496.36 642.459 496.36C643.285 496.36 643.999 496.5 644.599 496.78C645.212 497.06 645.712 497.433 646.099 497.9C646.499 498.367 646.792 498.913 646.979 499.54C647.179 500.167 647.279 500.827 647.279 501.52C647.279 502.333 647.152 503.093 646.899 503.8C646.645 504.507 646.279 505.127 645.799 505.66C645.332 506.18 644.759 506.593 644.079 506.9C643.399 507.207 642.625 507.36 641.759 507.36C641.119 507.36 640.505 507.24 639.919 507C639.332 506.76 638.812 506.413 638.359 505.96C637.919 505.507 637.565 504.953 637.299 504.3C637.045 503.633 636.919 502.88 636.919 502.04ZM650.197 496.9C650.637 496.673 651.137 496.56 651.697 496.56V499.44C651.831 499.04 652.011 498.66 652.237 498.3C652.464 497.927 652.731 497.6 653.037 497.32C653.357 497.04 653.711 496.82 654.097 496.66C654.484 496.487 654.911 496.4 655.377 496.4C655.737 496.4 656.051 496.46 656.317 496.58C656.584 496.687 656.804 496.827 656.977 497C657.151 497.16 657.277 497.347 657.357 497.56C657.451 497.773 657.504 497.98 657.517 498.18C657.411 498.367 657.224 498.527 656.957 498.66C656.704 498.793 656.451 498.873 656.197 498.9C656.131 498.54 655.984 498.22 655.757 497.94C655.531 497.66 655.151 497.52 654.617 497.52C654.231 497.52 653.871 497.633 653.537 497.86C653.217 498.087 652.931 498.407 652.677 498.82C652.424 499.22 652.217 499.7 652.057 500.26C651.911 500.82 651.817 501.433 651.777 502.1V506.84C651.591 506.947 651.344 507.02 651.037 507.06C650.744 507.113 650.464 507.14 650.197 507.14V496.9ZM666.66 505.62C666.513 505.82 666.333 506.02 666.12 506.22C665.906 506.42 665.646 506.6 665.34 506.76C665.046 506.92 664.706 507.053 664.32 507.16C663.933 507.267 663.5 507.32 663.02 507.32C662.433 507.32 661.873 507.213 661.34 507C660.806 506.787 660.326 506.473 659.9 506.06C659.486 505.633 659.153 505.113 658.9 504.5C658.66 503.873 658.54 503.153 658.54 502.34C658.54 501.54 658.686 500.78 658.98 500.06C659.286 499.327 659.7 498.687 660.22 498.14C660.74 497.593 661.346 497.16 662.04 496.84C662.746 496.52 663.5 496.36 664.3 496.36C664.833 496.36 665.286 496.427 665.66 496.56C666.046 496.68 666.38 496.833 666.66 497.02V491.9C666.886 491.78 667.133 491.693 667.4 491.64C667.68 491.587 667.96 491.56 668.24 491.56V506.84C668.053 506.947 667.806 507.02 667.5 507.06C667.206 507.113 666.926 507.14 666.66 507.14V505.62ZM663.76 506.18C664.506 506.18 665.12 506.007 665.6 505.66C666.093 505.3 666.446 504.887 666.66 504.42V499C666.553 498.787 666.413 498.58 666.24 498.38C666.08 498.167 665.88 497.98 665.64 497.82C665.4 497.647 665.12 497.513 664.8 497.42C664.493 497.313 664.146 497.26 663.76 497.26C663.32 497.26 662.886 497.347 662.46 497.52C662.033 497.693 661.646 497.96 661.3 498.32C660.966 498.667 660.693 499.113 660.48 499.66C660.28 500.207 660.18 500.847 660.18 501.58C660.18 502.42 660.286 503.133 660.5 503.72C660.726 504.293 661.006 504.767 661.34 505.14C661.686 505.5 662.073 505.767 662.5 505.94C662.926 506.1 663.346 506.18 663.76 506.18ZM680.755 506.26C680.715 506.327 680.649 506.407 680.555 506.5C680.475 506.593 680.382 506.687 680.275 506.78C680.169 506.86 680.049 506.933 679.915 507C679.795 507.067 679.682 507.113 679.575 507.14C679.149 507.113 678.789 506.953 678.495 506.66C678.202 506.353 678.042 505.953 678.015 505.46C677.909 505.66 677.749 505.873 677.535 506.1C677.322 506.313 677.062 506.513 676.755 506.7C676.462 506.873 676.122 507.013 675.735 507.12C675.349 507.24 674.929 507.3 674.475 507.3C673.529 507.3 672.775 507.06 672.215 506.58C671.669 506.1 671.395 505.46 671.395 504.66C671.395 503.833 671.709 503.14 672.335 502.58C672.962 502.02 674.035 501.607 675.555 501.34L677.935 500.92V500.14C677.935 499.18 677.709 498.447 677.255 497.94C676.815 497.433 676.155 497.18 675.275 497.18C674.729 497.18 674.262 497.32 673.875 497.6C673.502 497.867 673.315 498.267 673.315 498.8C673.315 499.04 673.395 499.253 673.555 499.44C673.435 499.6 673.242 499.747 672.975 499.88C672.709 500.013 672.435 500.093 672.155 500.12C672.089 500.053 672.009 499.953 671.915 499.82C671.822 499.687 671.775 499.507 671.775 499.28C671.775 498.867 671.895 498.48 672.135 498.12C672.375 497.76 672.689 497.453 673.075 497.2C673.462 496.933 673.909 496.727 674.415 496.58C674.922 496.433 675.449 496.36 675.995 496.36C677.275 496.36 678.182 496.653 678.715 497.24C679.249 497.813 679.515 498.62 679.515 499.66V504.68C679.515 505.227 679.635 505.607 679.875 505.82C680.115 506.02 680.395 506.14 680.715 506.18L680.755 506.26ZM675.115 506.24C675.809 506.24 676.395 506.08 676.875 505.76C677.369 505.44 677.722 505.027 677.935 504.52V501.64L675.255 502.12C674.535 502.253 673.982 502.48 673.595 502.8C673.222 503.12 673.035 503.58 673.035 504.18C673.035 504.847 673.235 505.36 673.635 505.72C674.049 506.067 674.542 506.24 675.115 506.24Z" fill="black"/>
<line x1="16.0025" y1="49.5" x2="0.00264624" y2="49.5813" stroke="#B6B6B6"/>
<line x1="146.571" y1="521.5" x2="352.571" y2="521.5" stroke="#7D7D7D"/>
<line x1="0.499694" y1="48.9825" x2="16.4997" y2="505.983" stroke="#B6B6B6"/>
<line x1="139.571" y1="521.5" x2="36.0005" y2="521.581" stroke="#7D7D7D"/>
<path d="M192.041 536.79C191.981 536.9 191.861 537.015 191.681 537.135C191.511 537.255 191.296 537.33 191.036 537.36C191.006 537.19 190.946 537.01 190.856 536.82C190.776 536.62 190.656 536.44 190.496 536.28C190.336 536.11 190.136 535.975 189.896 535.875C189.656 535.765 189.366 535.71 189.026 535.71C188.746 535.71 188.461 535.765 188.171 535.875C187.891 535.985 187.636 536.165 187.406 536.415C187.176 536.665 186.986 536.985 186.836 537.375C186.696 537.765 186.626 538.24 186.626 538.8C186.626 539.4 186.706 539.925 186.866 540.375C187.026 540.815 187.241 541.185 187.511 541.485C187.781 541.775 188.091 541.995 188.441 542.145C188.801 542.285 189.176 542.355 189.566 542.355C190.076 542.355 190.506 542.28 190.856 542.13C191.216 541.97 191.521 541.745 191.771 541.455C191.831 541.465 191.891 541.5 191.951 541.56C192.011 541.62 192.051 541.675 192.071 541.725C191.991 541.865 191.866 542.025 191.696 542.205C191.536 542.375 191.331 542.535 191.081 542.685C190.831 542.835 190.541 542.96 190.211 543.06C189.881 543.17 189.506 543.225 189.086 543.225C188.586 543.225 188.111 543.14 187.661 542.97C187.221 542.8 186.831 542.545 186.491 542.205C186.161 541.865 185.896 541.45 185.696 540.96C185.506 540.47 185.411 539.9 185.411 539.25C185.411 538.68 185.516 538.145 185.726 537.645C185.936 537.135 186.221 536.69 186.581 536.31C186.951 535.92 187.386 535.615 187.886 535.395C188.386 535.165 188.926 535.05 189.506 535.05C189.986 535.05 190.386 535.12 190.706 535.26C191.026 535.39 191.281 535.55 191.471 535.74C191.671 535.92 191.816 536.11 191.906 536.31C191.996 536.51 192.041 536.67 192.041 536.79ZM194.713 538.815C194.713 539.445 194.788 539.995 194.938 540.465C195.098 540.935 195.303 541.33 195.553 541.65C195.813 541.96 196.108 542.195 196.438 542.355C196.778 542.515 197.133 542.595 197.503 542.595C198.303 542.595 198.913 542.33 199.333 541.8C199.753 541.26 199.963 540.45 199.963 539.37C199.963 538.85 199.903 538.365 199.783 537.915C199.663 537.465 199.483 537.075 199.243 536.745C199.013 536.415 198.728 536.155 198.388 535.965C198.048 535.775 197.658 535.68 197.218 535.68C196.898 535.68 196.588 535.74 196.288 535.86C195.988 535.98 195.723 536.17 195.493 536.43C195.263 536.68 195.073 537.005 194.923 537.405C194.783 537.795 194.713 538.265 194.713 538.815ZM193.453 539.28C193.453 538.67 193.563 538.105 193.783 537.585C194.003 537.055 194.298 536.605 194.668 536.235C195.048 535.855 195.488 535.56 195.988 535.35C196.498 535.13 197.038 535.02 197.608 535.02C198.228 535.02 198.763 535.125 199.213 535.335C199.673 535.545 200.048 535.825 200.338 536.175C200.638 536.525 200.858 536.935 200.998 537.405C201.148 537.875 201.223 538.37 201.223 538.89C201.223 539.5 201.128 540.07 200.938 540.6C200.748 541.13 200.473 541.595 200.113 541.995C199.763 542.385 199.333 542.695 198.823 542.925C198.313 543.155 197.733 543.27 197.083 543.27C196.603 543.27 196.143 543.18 195.703 543C195.263 542.82 194.873 542.56 194.533 542.22C194.203 541.88 193.938 541.465 193.738 540.975C193.548 540.475 193.453 539.91 193.453 539.28ZM208.661 538.29C208.661 537.47 208.496 536.865 208.166 536.475C207.846 536.075 207.381 535.875 206.771 535.875C206.291 535.875 205.861 536.02 205.481 536.31C205.101 536.6 204.806 536.945 204.596 537.345V542.88C204.456 542.96 204.271 543.015 204.041 543.045C203.821 543.085 203.611 543.105 203.411 543.105V535.425C203.741 535.255 204.111 535.17 204.521 535.17V536.565C204.631 536.395 204.771 536.22 204.941 536.04C205.121 535.85 205.326 535.68 205.556 535.53C205.796 535.38 206.061 535.26 206.351 535.17C206.641 535.07 206.956 535.02 207.296 535.02C207.916 535.02 208.421 535.185 208.811 535.515C209.211 535.835 209.481 536.225 209.621 536.685C209.741 536.525 209.891 536.35 210.071 536.16C210.261 535.96 210.476 535.775 210.716 535.605C210.956 535.435 211.221 535.295 211.511 535.185C211.811 535.075 212.131 535.02 212.471 535.02C213.231 535.02 213.846 535.26 214.316 535.74C214.796 536.21 215.036 536.905 215.036 537.825V542.88C214.896 542.96 214.711 543.015 214.481 543.045C214.261 543.085 214.051 543.105 213.851 543.105V538.29C213.851 536.68 213.226 535.875 211.976 535.875C211.566 535.875 211.166 536.015 210.776 536.295C210.396 536.565 210.086 536.905 209.846 537.315V542.88C209.706 542.96 209.521 543.015 209.291 543.045C209.071 543.085 208.861 543.105 208.661 543.105V538.29ZM217.767 535.425C217.937 535.335 218.122 535.27 218.322 535.23C218.532 535.19 218.742 535.17 218.952 535.17V536.505C219.092 536.335 219.262 536.165 219.462 535.995C219.662 535.815 219.887 535.655 220.137 535.515C220.387 535.365 220.662 535.245 220.962 535.155C221.262 535.065 221.582 535.02 221.922 535.02C222.442 535.02 222.902 535.11 223.302 535.29C223.702 535.46 224.037 535.705 224.307 536.025C224.577 536.335 224.782 536.705 224.922 537.135C225.062 537.565 225.132 538.035 225.132 538.545C225.132 539.205 225.017 539.825 224.787 540.405C224.557 540.975 224.237 541.475 223.827 541.905C223.427 542.325 222.947 542.66 222.387 542.91C221.837 543.15 221.237 543.27 220.587 543.27C220.237 543.27 219.927 543.23 219.657 543.15C219.387 543.08 219.152 542.99 218.952 542.88V546.645C218.812 546.725 218.627 546.78 218.397 546.81C218.177 546.85 217.967 546.87 217.767 546.87V535.425ZM221.352 535.875C220.882 535.875 220.427 536.015 219.987 536.295C219.557 536.575 219.212 536.93 218.952 537.36V541.455C219.212 541.825 219.537 542.1 219.927 542.28C220.317 542.45 220.742 542.535 221.202 542.535C221.582 542.535 221.932 542.465 222.252 542.325C222.582 542.185 222.867 541.975 223.107 541.695C223.347 541.405 223.537 541.045 223.677 540.615C223.817 540.185 223.887 539.68 223.887 539.1C223.887 538.03 223.667 537.225 223.227 536.685C222.787 536.145 222.162 535.875 221.352 535.875ZM227.347 535.425C227.677 535.255 228.052 535.17 228.472 535.17V537.33C228.572 537.03 228.707 536.745 228.877 536.475C229.047 536.195 229.247 535.95 229.477 535.74C229.717 535.53 229.982 535.365 230.272 535.245C230.562 535.115 230.882 535.05 231.232 535.05C231.502 535.05 231.737 535.095 231.937 535.185C232.137 535.265 232.302 535.37 232.432 535.5C232.562 535.62 232.657 535.76 232.717 535.92C232.787 536.08 232.827 536.235 232.837 536.385C232.757 536.525 232.617 536.645 232.417 536.745C232.227 536.845 232.037 536.905 231.847 536.925C231.797 536.655 231.687 536.415 231.517 536.205C231.347 535.995 231.062 535.89 230.662 535.89C230.372 535.89 230.102 535.975 229.852 536.145C229.612 536.315 229.397 536.555 229.207 536.865C229.017 537.165 228.862 537.525 228.742 537.945C228.632 538.365 228.562 538.825 228.532 539.325V542.88C228.392 542.96 228.207 543.015 227.977 543.045C227.757 543.085 227.547 543.105 227.347 543.105V535.425ZM236.1 532.815C236.01 532.975 235.87 533.145 235.68 533.325C235.49 533.495 235.32 533.615 235.17 533.685C235.02 533.615 234.85 533.495 234.66 533.325C234.47 533.145 234.325 532.975 234.225 532.815C234.325 532.645 234.47 532.47 234.66 532.29C234.85 532.11 235.02 531.98 235.17 531.9C235.32 531.98 235.49 532.11 235.68 532.29C235.88 532.47 236.02 532.645 236.1 532.815ZM234.54 535.425C234.71 535.335 234.895 535.27 235.095 535.23C235.305 535.19 235.515 535.17 235.725 535.17V542.88C235.585 542.96 235.4 543.015 235.17 543.045C234.95 543.085 234.74 543.105 234.54 543.105V535.425ZM243.759 538.29C243.759 537.47 243.594 536.865 243.264 536.475C242.944 536.075 242.479 535.875 241.869 535.875C241.389 535.875 240.959 536.02 240.579 536.31C240.199 536.6 239.904 536.945 239.694 537.345V542.88C239.554 542.96 239.369 543.015 239.139 543.045C238.919 543.085 238.709 543.105 238.509 543.105V535.425C238.839 535.255 239.209 535.17 239.619 535.17V536.565C239.729 536.395 239.869 536.22 240.039 536.04C240.219 535.85 240.424 535.68 240.654 535.53C240.894 535.38 241.159 535.26 241.449 535.17C241.739 535.07 242.054 535.02 242.394 535.02C243.014 535.02 243.519 535.185 243.909 535.515C244.309 535.835 244.579 536.225 244.719 536.685C244.839 536.525 244.989 536.35 245.169 536.16C245.359 535.96 245.574 535.775 245.814 535.605C246.054 535.435 246.319 535.295 246.609 535.185C246.909 535.075 247.229 535.02 247.569 535.02C248.329 535.02 248.944 535.26 249.414 535.74C249.894 536.21 250.134 536.905 250.134 537.825V542.88C249.994 542.96 249.809 543.015 249.579 543.045C249.359 543.085 249.149 543.105 248.949 543.105V538.29C248.949 536.68 248.324 535.875 247.074 535.875C246.664 535.875 246.264 536.015 245.874 536.295C245.494 536.565 245.184 536.905 244.944 537.315V542.88C244.804 542.96 244.619 543.015 244.389 543.045C244.169 543.085 243.959 543.105 243.759 543.105V538.29ZM253.525 539.13C253.555 539.67 253.65 540.145 253.81 540.555C253.98 540.955 254.195 541.29 254.455 541.56C254.715 541.83 255.015 542.035 255.355 542.175C255.705 542.305 256.075 542.37 256.465 542.37C256.955 542.37 257.375 542.305 257.725 542.175C258.085 542.045 258.41 541.84 258.7 541.56C258.84 541.59 258.935 541.685 258.985 541.845C258.915 541.955 258.8 542.09 258.64 542.25C258.49 542.41 258.285 542.565 258.025 542.715C257.775 542.865 257.47 542.99 257.11 543.09C256.76 543.2 256.35 543.255 255.88 543.255C255.38 543.255 254.915 543.165 254.485 542.985C254.055 542.805 253.68 542.545 253.36 542.205C253.04 541.865 252.785 541.445 252.595 540.945C252.415 540.445 252.325 539.88 252.325 539.25C252.325 538.67 252.425 538.125 252.625 537.615C252.825 537.095 253.095 536.645 253.435 536.265C253.785 535.885 254.19 535.585 254.65 535.365C255.12 535.135 255.62 535.02 256.15 535.02C256.72 535.02 257.19 535.115 257.56 535.305C257.93 535.495 258.22 535.74 258.43 536.04C258.65 536.34 258.8 536.67 258.88 537.03C258.97 537.39 259.015 537.74 259.015 538.08C258.935 538.2 258.825 538.305 258.685 538.395C258.555 538.485 258.41 538.555 258.25 538.605L253.525 539.13ZM255.76 535.695C255.45 535.695 255.16 535.75 254.89 535.86C254.62 535.97 254.385 536.14 254.185 536.37C253.985 536.6 253.82 536.895 253.69 537.255C253.57 537.615 253.505 538.05 253.495 538.56L257.725 538.125C257.735 538.075 257.74 538.025 257.74 537.975C257.74 537.925 257.74 537.88 257.74 537.84C257.74 537.53 257.7 537.245 257.62 536.985C257.54 536.725 257.415 536.5 257.245 536.31C257.085 536.12 256.88 535.97 256.63 535.86C256.39 535.75 256.1 535.695 255.76 535.695ZM266.78 538.32C266.78 537.47 266.605 536.85 266.255 536.46C265.905 536.06 265.41 535.86 264.77 535.86C264.54 535.86 264.31 535.905 264.08 535.995C263.86 536.075 263.645 536.185 263.435 536.325C263.235 536.465 263.045 536.63 262.865 536.82C262.685 537 262.525 537.19 262.385 537.39V542.88C262.245 542.96 262.06 543.015 261.83 543.045C261.61 543.085 261.4 543.105 261.2 543.105V535.425C261.53 535.255 261.9 535.17 262.31 535.17V536.655C262.44 536.485 262.605 536.305 262.805 536.115C263.015 535.915 263.245 535.735 263.495 535.575C263.755 535.415 264.035 535.285 264.335 535.185C264.645 535.075 264.975 535.02 265.325 535.02C266.135 535.02 266.775 535.265 267.245 535.755C267.725 536.245 267.965 536.945 267.965 537.855V542.88C267.825 542.96 267.64 543.015 267.41 543.045C267.19 543.085 266.98 543.105 266.78 543.105V538.32ZM269.642 535.785C269.722 535.675 269.847 535.575 270.017 535.485C270.197 535.385 270.392 535.335 270.602 535.335H271.082V533.175C271.242 533.045 271.427 532.95 271.637 532.89C271.857 532.82 272.067 532.785 272.267 532.785V535.335H275.207C275.197 535.505 275.147 535.65 275.057 535.77C274.977 535.88 274.872 535.935 274.742 535.935H272.267V540.855C272.267 541.175 272.302 541.435 272.372 541.635C272.452 541.825 272.557 541.975 272.687 542.085C272.817 542.195 272.967 542.27 273.137 542.31C273.307 542.35 273.482 542.37 273.662 542.37C273.992 542.37 274.267 542.305 274.487 542.175C274.707 542.045 274.887 541.91 275.027 541.77C275.167 541.81 275.257 541.895 275.297 542.025C275.247 542.105 275.167 542.21 275.057 542.34C274.947 542.47 274.802 542.6 274.622 542.73C274.442 542.85 274.227 542.955 273.977 543.045C273.727 543.135 273.447 543.18 273.137 543.18C272.857 543.18 272.592 543.145 272.342 543.075C272.092 543.005 271.872 542.89 271.682 542.73C271.502 542.57 271.357 542.355 271.247 542.085C271.137 541.815 271.082 541.48 271.082 541.08V535.935H269.642V535.785ZM277.652 538.815C277.652 539.445 277.727 539.995 277.877 540.465C278.037 540.935 278.242 541.33 278.492 541.65C278.752 541.96 279.047 542.195 279.377 542.355C279.717 542.515 280.072 542.595 280.442 542.595C281.242 542.595 281.852 542.33 282.272 541.8C282.692 541.26 282.902 540.45 282.902 539.37C282.902 538.85 282.842 538.365 282.722 537.915C282.602 537.465 282.422 537.075 282.182 536.745C281.952 536.415 281.667 536.155 281.327 535.965C280.987 535.775 280.597 535.68 280.157 535.68C279.837 535.68 279.527 535.74 279.227 535.86C278.927 535.98 278.662 536.17 278.432 536.43C278.202 536.68 278.012 537.005 277.862 537.405C277.722 537.795 277.652 538.265 277.652 538.815ZM276.392 539.28C276.392 538.67 276.502 538.105 276.722 537.585C276.942 537.055 277.237 536.605 277.607 536.235C277.987 535.855 278.427 535.56 278.927 535.35C279.437 535.13 279.977 535.02 280.547 535.02C281.167 535.02 281.702 535.125 282.152 535.335C282.612 535.545 282.987 535.825 283.277 536.175C283.577 536.525 283.797 536.935 283.937 537.405C284.087 537.875 284.162 538.37 284.162 538.89C284.162 539.5 284.067 540.07 283.877 540.6C283.687 541.13 283.412 541.595 283.052 541.995C282.702 542.385 282.272 542.695 281.762 542.925C281.252 543.155 280.672 543.27 280.022 543.27C279.542 543.27 279.082 543.18 278.642 543C278.202 542.82 277.812 542.56 277.472 542.22C277.142 541.88 276.877 541.465 276.677 540.975C276.487 540.475 276.392 539.91 276.392 539.28Z" fill="black"/>
<path d="M66.2206 533.62C66.6606 533.46 67.1756 533.325 67.7656 533.215C68.3656 533.095 68.9706 533.035 69.5806 533.035C70.2606 533.035 70.8356 533.115 71.3056 533.275C71.7856 533.425 72.1756 533.635 72.4756 533.905C72.7756 534.165 72.9906 534.47 73.1206 534.82C73.2606 535.17 73.3306 535.54 73.3306 535.93C73.3306 536.41 73.2406 536.835 73.0606 537.205C72.8806 537.565 72.6456 537.88 72.3556 538.15C72.0756 538.41 71.7506 538.63 71.3806 538.81C71.0106 538.98 70.6406 539.11 70.2706 539.2C70.4406 539.31 70.6006 539.45 70.7506 539.62C70.9006 539.78 71.0606 539.97 71.2306 540.19L72.7156 542.11C73.0256 542.51 73.3106 542.855 73.5706 543.145C73.8306 543.435 74.0506 543.655 74.2306 543.805V543.895C74.0906 543.965 73.8856 544.015 73.6156 544.045C73.3456 544.085 73.0906 544.105 72.8506 544.105C72.7506 544.065 72.6156 543.96 72.4456 543.79C72.2856 543.61 72.0606 543.31 71.7706 542.89L70.0006 540.385C69.8706 540.205 69.7456 540.05 69.6256 539.92C69.5156 539.79 69.3906 539.685 69.2506 539.605C69.1206 539.515 68.9656 539.455 68.7856 539.425C68.6156 539.385 68.4056 539.365 68.1556 539.365H67.4506V543.865C67.2906 543.955 67.1006 544.015 66.8806 544.045C66.6706 544.085 66.4506 544.105 66.2206 544.105V533.62ZM69.0406 533.725C68.8006 533.725 68.5406 533.74 68.2606 533.77C67.9806 533.8 67.7106 533.845 67.4506 533.905V538.555C67.6206 538.605 67.8156 538.645 68.0356 538.675C68.2656 538.705 68.5256 538.72 68.8156 538.72C69.7956 538.72 70.5706 538.52 71.1406 538.12C71.7106 537.72 71.9956 537.105 71.9956 536.275C71.9956 535.915 71.9356 535.58 71.8156 535.27C71.6956 534.95 71.5106 534.68 71.2606 534.46C71.0206 534.23 70.7156 534.05 70.3456 533.92C69.9756 533.79 69.5406 533.725 69.0406 533.725ZM82.5118 543.445C82.4818 543.495 82.4318 543.555 82.3618 543.625C82.3018 543.695 82.2318 543.765 82.1518 543.835C82.0718 543.895 81.9818 543.95 81.8818 544C81.7918 544.05 81.7068 544.085 81.6268 544.105C81.3068 544.085 81.0368 543.965 80.8168 543.745C80.5968 543.515 80.4768 543.215 80.4568 542.845C80.3768 542.995 80.2568 543.155 80.0968 543.325C79.9368 543.485 79.7418 543.635 79.5118 543.775C79.2918 543.905 79.0368 544.01 78.7468 544.09C78.4568 544.18 78.1418 544.225 77.8018 544.225C77.0918 544.225 76.5268 544.045 76.1068 543.685C75.6968 543.325 75.4918 542.845 75.4918 542.245C75.4918 541.625 75.7268 541.105 76.1968 540.685C76.6668 540.265 77.4718 539.955 78.6118 539.755L80.3968 539.44V538.855C80.3968 538.135 80.2268 537.585 79.8868 537.205C79.5568 536.825 79.0618 536.635 78.4018 536.635C77.9918 536.635 77.6418 536.74 77.3518 536.95C77.0718 537.15 76.9318 537.45 76.9318 537.85C76.9318 538.03 76.9918 538.19 77.1118 538.33C77.0218 538.45 76.8768 538.56 76.6768 538.66C76.4768 538.76 76.2718 538.82 76.0618 538.84C76.0118 538.79 75.9518 538.715 75.8818 538.615C75.8118 538.515 75.7768 538.38 75.7768 538.21C75.7768 537.9 75.8668 537.61 76.0468 537.34C76.2268 537.07 76.4618 536.84 76.7518 536.65C77.0418 536.45 77.3768 536.295 77.7568 536.185C78.1368 536.075 78.5318 536.02 78.9418 536.02C79.9018 536.02 80.5818 536.24 80.9818 536.68C81.3818 537.11 81.5818 537.715 81.5818 538.495V542.26C81.5818 542.67 81.6718 542.955 81.8518 543.115C82.0318 543.265 82.2418 543.355 82.4818 543.385L82.5118 543.445ZM78.2818 543.43C78.8018 543.43 79.2418 543.31 79.6018 543.07C79.9718 542.83 80.2368 542.52 80.3968 542.14V539.98L78.3868 540.34C77.8468 540.44 77.4318 540.61 77.1418 540.85C76.8618 541.09 76.7218 541.435 76.7218 541.885C76.7218 542.385 76.8718 542.77 77.1718 543.04C77.4818 543.3 77.8518 543.43 78.2818 543.43ZM86.0272 533.815C85.9372 533.975 85.7972 534.145 85.6072 534.325C85.4172 534.495 85.2472 534.615 85.0972 534.685C84.9472 534.615 84.7772 534.495 84.5872 534.325C84.3972 534.145 84.2522 533.975 84.1522 533.815C84.2522 533.645 84.3972 533.47 84.5872 533.29C84.7772 533.11 84.9472 532.98 85.0972 532.9C85.2472 532.98 85.4172 533.11 85.6072 533.29C85.8072 533.47 85.9472 533.645 86.0272 533.815ZM84.4672 536.425C84.6372 536.335 84.8222 536.27 85.0222 536.23C85.2322 536.19 85.4422 536.17 85.6522 536.17V543.88C85.5122 543.96 85.3272 544.015 85.0972 544.045C84.8772 544.085 84.6672 544.105 84.4672 544.105V536.425ZM89.1559 539.815C89.1559 540.445 89.2309 540.995 89.3809 541.465C89.5409 541.935 89.7459 542.33 89.9959 542.65C90.2559 542.96 90.5509 543.195 90.8809 543.355C91.2209 543.515 91.5759 543.595 91.9459 543.595C92.7459 543.595 93.3559 543.33 93.7759 542.8C94.1959 542.26 94.4059 541.45 94.4059 540.37C94.4059 539.85 94.3459 539.365 94.2259 538.915C94.1059 538.465 93.9259 538.075 93.6859 537.745C93.4559 537.415 93.1709 537.155 92.8309 536.965C92.4909 536.775 92.1009 536.68 91.6609 536.68C91.3409 536.68 91.0309 536.74 90.7309 536.86C90.4309 536.98 90.1659 537.17 89.9359 537.43C89.7059 537.68 89.5159 538.005 89.3659 538.405C89.2259 538.795 89.1559 539.265 89.1559 539.815ZM87.8959 540.28C87.8959 539.67 88.0059 539.105 88.2259 538.585C88.4459 538.055 88.7409 537.605 89.1109 537.235C89.4909 536.855 89.9309 536.56 90.4309 536.35C90.9409 536.13 91.4809 536.02 92.0509 536.02C92.6709 536.02 93.2059 536.125 93.6559 536.335C94.1159 536.545 94.4909 536.825 94.7809 537.175C95.0809 537.525 95.3009 537.935 95.4409 538.405C95.5909 538.875 95.6659 539.37 95.6659 539.89C95.6659 540.5 95.5709 541.07 95.3809 541.6C95.1909 542.13 94.9159 542.595 94.5559 542.995C94.2059 543.385 93.7759 543.695 93.2659 543.925C92.7559 544.155 92.1759 544.27 91.5259 544.27C91.0459 544.27 90.5859 544.18 90.1459 544C89.7059 543.82 89.3159 543.56 88.9759 543.22C88.6459 542.88 88.3809 542.465 88.1809 541.975C87.9909 541.475 87.8959 540.91 87.8959 540.28Z" fill="black"/>
</svg>
