<svg width="789" height="540" viewBox="0 0 789 540" fill="none" xmlns="http://www.w3.org/2000/svg">
<rect x="7.92944" y="41.5" width="779" height="483" fill="white" stroke="black"/>
<path d="M326 42.2796C327.563 84.9688 321.349 122.965 306.347 162.961C291.344 202.958 268.556 239.581 239.303 270.711C210.05 301.841 174.913 326.859 135.925 344.317C96.9376 361.775 50.7384 370.409 8.03454 371.5L8.03452 158.995C22.481 158.626 35.3889 155.155 48.5782 149.25C61.7675 143.344 73.6543 134.88 83.5504 124.349C93.4465 113.818 101.155 101.428 106.231 87.8978C111.306 74.3672 113.73 56.7211 113.201 42.2796L326 42.2796Z" fill="#ECE6E8"/>
<line x1="118" y1="27.5" x2="324" y2="27.5" stroke="#7D7D7D"/>
<line x1="111" y1="27.5" x2="7.42994" y2="27.5813" stroke="#7D7D7D"/>
<line x1="123.929" y1="540" x2="123.929" y2="532" stroke="#7D7D7D"/>
<line y1="-0.5" x2="8" y2="-0.5" transform="matrix(0.00276076 0.999996 -1 0.000207478 787.407 26.9194)" stroke="#7D7D7D"/>
<line x1="336.929" y1="540" x2="336.929" y2="532" stroke="#7D7D7D"/>
<path d="M170.47 15.79C170.41 15.9 170.29 16.015 170.11 16.135C169.94 16.255 169.725 16.33 169.465 16.36C169.435 16.19 169.375 16.01 169.285 15.82C169.205 15.62 169.085 15.44 168.925 15.28C168.765 15.11 168.565 14.975 168.325 14.875C168.085 14.765 167.795 14.71 167.455 14.71C167.175 14.71 166.89 14.765 166.6 14.875C166.32 14.985 166.065 15.165 165.835 15.415C165.605 15.665 165.415 15.985 165.265 16.375C165.125 16.765 165.055 17.24 165.055 17.8C165.055 18.4 165.135 18.925 165.295 19.375C165.455 19.815 165.67 20.185 165.94 20.485C166.21 20.775 166.52 20.995 166.87 21.145C167.23 21.285 167.605 21.355 167.995 21.355C168.505 21.355 168.935 21.28 169.285 21.13C169.645 20.97 169.95 20.745 170.2 20.455C170.26 20.465 170.32 20.5 170.38 20.56C170.44 20.62 170.48 20.675 170.5 20.725C170.42 20.865 170.295 21.025 170.125 21.205C169.965 21.375 169.76 21.535 169.51 21.685C169.26 21.835 168.97 21.96 168.64 22.06C168.31 22.17 167.935 22.225 167.515 22.225C167.015 22.225 166.54 22.14 166.09 21.97C165.65 21.8 165.26 21.545 164.92 21.205C164.59 20.865 164.325 20.45 164.125 19.96C163.935 19.47 163.84 18.9 163.84 18.25C163.84 17.68 163.945 17.145 164.155 16.645C164.365 16.135 164.65 15.69 165.01 15.31C165.38 14.92 165.815 14.615 166.315 14.395C166.815 14.165 167.355 14.05 167.935 14.05C168.415 14.05 168.815 14.12 169.135 14.26C169.455 14.39 169.71 14.55 169.9 14.74C170.1 14.92 170.245 15.11 170.335 15.31C170.425 15.51 170.47 15.67 170.47 15.79ZM173.142 17.815C173.142 18.445 173.217 18.995 173.367 19.465C173.527 19.935 173.732 20.33 173.982 20.65C174.242 20.96 174.537 21.195 174.867 21.355C175.207 21.515 175.562 21.595 175.932 21.595C176.732 21.595 177.342 21.33 177.762 20.8C178.182 20.26 178.392 19.45 178.392 18.37C178.392 17.85 178.332 17.365 178.212 16.915C178.092 16.465 177.912 16.075 177.672 15.745C177.442 15.415 177.157 15.155 176.817 14.965C176.477 14.775 176.087 14.68 175.647 14.68C175.327 14.68 175.017 14.74 174.717 14.86C174.417 14.98 174.152 15.17 173.922 15.43C173.692 15.68 173.502 16.005 173.352 16.405C173.212 16.795 173.142 17.265 173.142 17.815ZM171.882 18.28C171.882 17.67 171.992 17.105 172.212 16.585C172.432 16.055 172.727 15.605 173.097 15.235C173.477 14.855 173.917 14.56 174.417 14.35C174.927 14.13 175.467 14.02 176.037 14.02C176.657 14.02 177.192 14.125 177.642 14.335C178.102 14.545 178.477 14.825 178.767 15.175C179.067 15.525 179.287 15.935 179.427 16.405C179.577 16.875 179.652 17.37 179.652 17.89C179.652 18.5 179.557 19.07 179.367 19.6C179.177 20.13 178.902 20.595 178.542 20.995C178.192 21.385 177.762 21.695 177.252 21.925C176.742 22.155 176.162 22.27 175.512 22.27C175.032 22.27 174.572 22.18 174.132 22C173.692 21.82 173.302 21.56 172.962 21.22C172.632 20.88 172.367 20.465 172.167 19.975C171.977 19.475 171.882 18.91 171.882 18.28ZM187.091 17.29C187.091 16.47 186.926 15.865 186.596 15.475C186.276 15.075 185.811 14.875 185.201 14.875C184.721 14.875 184.291 15.02 183.911 15.31C183.531 15.6 183.236 15.945 183.026 16.345V21.88C182.886 21.96 182.701 22.015 182.471 22.045C182.251 22.085 182.041 22.105 181.841 22.105V14.425C182.171 14.255 182.541 14.17 182.951 14.17V15.565C183.061 15.395 183.201 15.22 183.371 15.04C183.551 14.85 183.756 14.68 183.986 14.53C184.226 14.38 184.491 14.26 184.781 14.17C185.071 14.07 185.386 14.02 185.726 14.02C186.346 14.02 186.851 14.185 187.241 14.515C187.641 14.835 187.911 15.225 188.051 15.685C188.171 15.525 188.321 15.35 188.501 15.16C188.691 14.96 188.906 14.775 189.146 14.605C189.386 14.435 189.651 14.295 189.941 14.185C190.241 14.075 190.561 14.02 190.901 14.02C191.661 14.02 192.276 14.26 192.746 14.74C193.226 15.21 193.466 15.905 193.466 16.825V21.88C193.326 21.96 193.141 22.015 192.911 22.045C192.691 22.085 192.481 22.105 192.281 22.105V17.29C192.281 15.68 191.656 14.875 190.406 14.875C189.996 14.875 189.596 15.015 189.206 15.295C188.826 15.565 188.516 15.905 188.276 16.315V21.88C188.136 21.96 187.951 22.015 187.721 22.045C187.501 22.085 187.291 22.105 187.091 22.105V17.29ZM196.196 14.425C196.366 14.335 196.551 14.27 196.751 14.23C196.961 14.19 197.171 14.17 197.381 14.17V15.505C197.521 15.335 197.691 15.165 197.891 14.995C198.091 14.815 198.316 14.655 198.566 14.515C198.816 14.365 199.091 14.245 199.391 14.155C199.691 14.065 200.011 14.02 200.351 14.02C200.871 14.02 201.331 14.11 201.731 14.29C202.131 14.46 202.466 14.705 202.736 15.025C203.006 15.335 203.211 15.705 203.351 16.135C203.491 16.565 203.561 17.035 203.561 17.545C203.561 18.205 203.446 18.825 203.216 19.405C202.986 19.975 202.666 20.475 202.256 20.905C201.856 21.325 201.376 21.66 200.816 21.91C200.266 22.15 199.666 22.27 199.016 22.27C198.666 22.27 198.356 22.23 198.086 22.15C197.816 22.08 197.581 21.99 197.381 21.88V25.645C197.241 25.725 197.056 25.78 196.826 25.81C196.606 25.85 196.396 25.87 196.196 25.87V14.425ZM199.781 14.875C199.311 14.875 198.856 15.015 198.416 15.295C197.986 15.575 197.641 15.93 197.381 16.36V20.455C197.641 20.825 197.966 21.1 198.356 21.28C198.746 21.45 199.171 21.535 199.631 21.535C200.011 21.535 200.361 21.465 200.681 21.325C201.011 21.185 201.296 20.975 201.536 20.695C201.776 20.405 201.966 20.045 202.106 19.615C202.246 19.185 202.316 18.68 202.316 18.1C202.316 17.03 202.096 16.225 201.656 15.685C201.216 15.145 200.591 14.875 199.781 14.875ZM205.776 14.425C206.106 14.255 206.481 14.17 206.901 14.17V16.33C207.001 16.03 207.136 15.745 207.306 15.475C207.476 15.195 207.676 14.95 207.906 14.74C208.146 14.53 208.411 14.365 208.701 14.245C208.991 14.115 209.311 14.05 209.661 14.05C209.931 14.05 210.166 14.095 210.366 14.185C210.566 14.265 210.731 14.37 210.861 14.5C210.991 14.62 211.086 14.76 211.146 14.92C211.216 15.08 211.256 15.235 211.266 15.385C211.186 15.525 211.046 15.645 210.846 15.745C210.656 15.845 210.466 15.905 210.276 15.925C210.226 15.655 210.116 15.415 209.946 15.205C209.776 14.995 209.491 14.89 209.091 14.89C208.801 14.89 208.531 14.975 208.281 15.145C208.041 15.315 207.826 15.555 207.636 15.865C207.446 16.165 207.291 16.525 207.171 16.945C207.061 17.365 206.991 17.825 206.961 18.325V21.88C206.821 21.96 206.636 22.015 206.406 22.045C206.186 22.085 205.976 22.105 205.776 22.105V14.425ZM214.53 11.815C214.44 11.975 214.3 12.145 214.11 12.325C213.92 12.495 213.75 12.615 213.6 12.685C213.45 12.615 213.28 12.495 213.09 12.325C212.9 12.145 212.755 11.975 212.655 11.815C212.755 11.645 212.9 11.47 213.09 11.29C213.28 11.11 213.45 10.98 213.6 10.9C213.75 10.98 213.92 11.11 214.11 11.29C214.31 11.47 214.45 11.645 214.53 11.815ZM212.97 14.425C213.14 14.335 213.325 14.27 213.525 14.23C213.735 14.19 213.945 14.17 214.155 14.17V21.88C214.015 21.96 213.83 22.015 213.6 22.045C213.38 22.085 213.17 22.105 212.97 22.105V14.425ZM222.189 17.29C222.189 16.47 222.024 15.865 221.694 15.475C221.374 15.075 220.909 14.875 220.299 14.875C219.819 14.875 219.389 15.02 219.009 15.31C218.629 15.6 218.334 15.945 218.124 16.345V21.88C217.984 21.96 217.799 22.015 217.569 22.045C217.349 22.085 217.139 22.105 216.939 22.105V14.425C217.269 14.255 217.639 14.17 218.049 14.17V15.565C218.159 15.395 218.299 15.22 218.469 15.04C218.649 14.85 218.854 14.68 219.084 14.53C219.324 14.38 219.589 14.26 219.879 14.17C220.169 14.07 220.484 14.02 220.824 14.02C221.444 14.02 221.949 14.185 222.339 14.515C222.739 14.835 223.009 15.225 223.149 15.685C223.269 15.525 223.419 15.35 223.599 15.16C223.789 14.96 224.004 14.775 224.244 14.605C224.484 14.435 224.749 14.295 225.039 14.185C225.339 14.075 225.659 14.02 225.999 14.02C226.759 14.02 227.374 14.26 227.844 14.74C228.324 15.21 228.564 15.905 228.564 16.825V21.88C228.424 21.96 228.239 22.015 228.009 22.045C227.789 22.085 227.579 22.105 227.379 22.105V17.29C227.379 15.68 226.754 14.875 225.504 14.875C225.094 14.875 224.694 15.015 224.304 15.295C223.924 15.565 223.614 15.905 223.374 16.315V21.88C223.234 21.96 223.049 22.015 222.819 22.045C222.599 22.085 222.389 22.105 222.189 22.105V17.29ZM231.954 18.13C231.984 18.67 232.079 19.145 232.239 19.555C232.409 19.955 232.624 20.29 232.884 20.56C233.144 20.83 233.444 21.035 233.784 21.175C234.134 21.305 234.504 21.37 234.894 21.37C235.384 21.37 235.804 21.305 236.154 21.175C236.514 21.045 236.839 20.84 237.129 20.56C237.269 20.59 237.364 20.685 237.414 20.845C237.344 20.955 237.229 21.09 237.069 21.25C236.919 21.41 236.714 21.565 236.454 21.715C236.204 21.865 235.899 21.99 235.539 22.09C235.189 22.2 234.779 22.255 234.309 22.255C233.809 22.255 233.344 22.165 232.914 21.985C232.484 21.805 232.109 21.545 231.789 21.205C231.469 20.865 231.214 20.445 231.024 19.945C230.844 19.445 230.754 18.88 230.754 18.25C230.754 17.67 230.854 17.125 231.054 16.615C231.254 16.095 231.524 15.645 231.864 15.265C232.214 14.885 232.619 14.585 233.079 14.365C233.549 14.135 234.049 14.02 234.579 14.02C235.149 14.02 235.619 14.115 235.989 14.305C236.359 14.495 236.649 14.74 236.859 15.04C237.079 15.34 237.229 15.67 237.309 16.03C237.399 16.39 237.444 16.74 237.444 17.08C237.364 17.2 237.254 17.305 237.114 17.395C236.984 17.485 236.839 17.555 236.679 17.605L231.954 18.13ZM234.189 14.695C233.879 14.695 233.589 14.75 233.319 14.86C233.049 14.97 232.814 15.14 232.614 15.37C232.414 15.6 232.249 15.895 232.119 16.255C231.999 16.615 231.934 17.05 231.924 17.56L236.154 17.125C236.164 17.075 236.169 17.025 236.169 16.975C236.169 16.925 236.169 16.88 236.169 16.84C236.169 16.53 236.129 16.245 236.049 15.985C235.969 15.725 235.844 15.5 235.674 15.31C235.514 15.12 235.309 14.97 235.059 14.86C234.819 14.75 234.529 14.695 234.189 14.695ZM245.209 17.32C245.209 16.47 245.034 15.85 244.684 15.46C244.334 15.06 243.839 14.86 243.199 14.86C242.969 14.86 242.739 14.905 242.509 14.995C242.289 15.075 242.074 15.185 241.864 15.325C241.664 15.465 241.474 15.63 241.294 15.82C241.114 16 240.954 16.19 240.814 16.39V21.88C240.674 21.96 240.489 22.015 240.259 22.045C240.039 22.085 239.829 22.105 239.629 22.105V14.425C239.959 14.255 240.329 14.17 240.739 14.17V15.655C240.869 15.485 241.034 15.305 241.234 15.115C241.444 14.915 241.674 14.735 241.924 14.575C242.184 14.415 242.464 14.285 242.764 14.185C243.074 14.075 243.404 14.02 243.754 14.02C244.564 14.02 245.204 14.265 245.674 14.755C246.154 15.245 246.394 15.945 246.394 16.855V21.88C246.254 21.96 246.069 22.015 245.839 22.045C245.619 22.085 245.409 22.105 245.209 22.105V17.32ZM248.071 14.785C248.151 14.675 248.276 14.575 248.446 14.485C248.626 14.385 248.821 14.335 249.031 14.335H249.511V12.175C249.671 12.045 249.856 11.95 250.066 11.89C250.286 11.82 250.496 11.785 250.696 11.785V14.335H253.636C253.626 14.505 253.576 14.65 253.486 14.77C253.406 14.88 253.301 14.935 253.171 14.935H250.696V19.855C250.696 20.175 250.731 20.435 250.801 20.635C250.881 20.825 250.986 20.975 251.116 21.085C251.246 21.195 251.396 21.27 251.566 21.31C251.736 21.35 251.911 21.37 252.091 21.37C252.421 21.37 252.696 21.305 252.916 21.175C253.136 21.045 253.316 20.91 253.456 20.77C253.596 20.81 253.686 20.895 253.726 21.025C253.676 21.105 253.596 21.21 253.486 21.34C253.376 21.47 253.231 21.6 253.051 21.73C252.871 21.85 252.656 21.955 252.406 22.045C252.156 22.135 251.876 22.18 251.566 22.18C251.286 22.18 251.021 22.145 250.771 22.075C250.521 22.005 250.301 21.89 250.111 21.73C249.931 21.57 249.786 21.355 249.676 21.085C249.566 20.815 249.511 20.48 249.511 20.08V14.935H248.071V14.785ZM256.081 17.815C256.081 18.445 256.156 18.995 256.306 19.465C256.466 19.935 256.671 20.33 256.921 20.65C257.181 20.96 257.476 21.195 257.806 21.355C258.146 21.515 258.501 21.595 258.871 21.595C259.671 21.595 260.281 21.33 260.701 20.8C261.121 20.26 261.331 19.45 261.331 18.37C261.331 17.85 261.271 17.365 261.151 16.915C261.031 16.465 260.851 16.075 260.611 15.745C260.381 15.415 260.096 15.155 259.756 14.965C259.416 14.775 259.026 14.68 258.586 14.68C258.266 14.68 257.956 14.74 257.656 14.86C257.356 14.98 257.091 15.17 256.861 15.43C256.631 15.68 256.441 16.005 256.291 16.405C256.151 16.795 256.081 17.265 256.081 17.815ZM254.821 18.28C254.821 17.67 254.931 17.105 255.151 16.585C255.371 16.055 255.666 15.605 256.036 15.235C256.416 14.855 256.856 14.56 257.356 14.35C257.866 14.13 258.406 14.02 258.976 14.02C259.596 14.02 260.131 14.125 260.581 14.335C261.041 14.545 261.416 14.825 261.706 15.175C262.006 15.525 262.226 15.935 262.366 16.405C262.516 16.875 262.591 17.37 262.591 17.89C262.591 18.5 262.496 19.07 262.306 19.6C262.116 20.13 261.841 20.595 261.481 20.995C261.131 21.385 260.701 21.695 260.191 21.925C259.681 22.155 259.101 22.27 258.451 22.27C257.971 22.27 257.511 22.18 257.071 22C256.631 21.82 256.241 21.56 255.901 21.22C255.571 20.88 255.306 20.465 255.106 19.975C254.916 19.475 254.821 18.91 254.821 18.28Z" fill="black"/>
<path d="M44.65 12.62C45.09 12.46 45.605 12.325 46.195 12.215C46.795 12.095 47.4 12.035 48.01 12.035C48.69 12.035 49.265 12.115 49.735 12.275C50.215 12.425 50.605 12.635 50.905 12.905C51.205 13.165 51.42 13.47 51.55 13.82C51.69 14.17 51.76 14.54 51.76 14.93C51.76 15.41 51.67 15.835 51.49 16.205C51.31 16.565 51.075 16.88 50.785 17.15C50.505 17.41 50.18 17.63 49.81 17.81C49.44 17.98 49.07 18.11 48.7 18.2C48.87 18.31 49.03 18.45 49.18 18.62C49.33 18.78 49.49 18.97 49.66 19.19L51.145 21.11C51.455 21.51 51.74 21.855 52 22.145C52.26 22.435 52.48 22.655 52.66 22.805V22.895C52.52 22.965 52.315 23.015 52.045 23.045C51.775 23.085 51.52 23.105 51.28 23.105C51.18 23.065 51.045 22.96 50.875 22.79C50.715 22.61 50.49 22.31 50.2 21.89L48.43 19.385C48.3 19.205 48.175 19.05 48.055 18.92C47.945 18.79 47.82 18.685 47.68 18.605C47.55 18.515 47.395 18.455 47.215 18.425C47.045 18.385 46.835 18.365 46.585 18.365H45.88V22.865C45.72 22.955 45.53 23.015 45.31 23.045C45.1 23.085 44.88 23.105 44.65 23.105V12.62ZM47.47 12.725C47.23 12.725 46.97 12.74 46.69 12.77C46.41 12.8 46.14 12.845 45.88 12.905V17.555C46.05 17.605 46.245 17.645 46.465 17.675C46.695 17.705 46.955 17.72 47.245 17.72C48.225 17.72 49 17.52 49.57 17.12C50.14 16.72 50.425 16.105 50.425 15.275C50.425 14.915 50.365 14.58 50.245 14.27C50.125 13.95 49.94 13.68 49.69 13.46C49.45 13.23 49.145 13.05 48.775 12.92C48.405 12.79 47.97 12.725 47.47 12.725ZM60.9413 22.445C60.9113 22.495 60.8613 22.555 60.7913 22.625C60.7313 22.695 60.6613 22.765 60.5813 22.835C60.5013 22.895 60.4113 22.95 60.3113 23C60.2213 23.05 60.1363 23.085 60.0563 23.105C59.7363 23.085 59.4663 22.965 59.2463 22.745C59.0263 22.515 58.9063 22.215 58.8863 21.845C58.8063 21.995 58.6863 22.155 58.5263 22.325C58.3663 22.485 58.1713 22.635 57.9413 22.775C57.7213 22.905 57.4663 23.01 57.1763 23.09C56.8863 23.18 56.5713 23.225 56.2313 23.225C55.5213 23.225 54.9563 23.045 54.5363 22.685C54.1263 22.325 53.9213 21.845 53.9213 21.245C53.9213 20.625 54.1563 20.105 54.6263 19.685C55.0963 19.265 55.9013 18.955 57.0413 18.755L58.8263 18.44V17.855C58.8263 17.135 58.6563 16.585 58.3163 16.205C57.9863 15.825 57.4913 15.635 56.8313 15.635C56.4213 15.635 56.0713 15.74 55.7813 15.95C55.5013 16.15 55.3613 16.45 55.3613 16.85C55.3613 17.03 55.4213 17.19 55.5413 17.33C55.4513 17.45 55.3063 17.56 55.1063 17.66C54.9063 17.76 54.7013 17.82 54.4913 17.84C54.4413 17.79 54.3813 17.715 54.3113 17.615C54.2413 17.515 54.2063 17.38 54.2063 17.21C54.2063 16.9 54.2963 16.61 54.4763 16.34C54.6563 16.07 54.8913 15.84 55.1813 15.65C55.4713 15.45 55.8063 15.295 56.1863 15.185C56.5663 15.075 56.9613 15.02 57.3713 15.02C58.3313 15.02 59.0113 15.24 59.4113 15.68C59.8113 16.11 60.0113 16.715 60.0113 17.495V21.26C60.0113 21.67 60.1013 21.955 60.2813 22.115C60.4613 22.265 60.6713 22.355 60.9113 22.385L60.9413 22.445ZM56.7113 22.43C57.2313 22.43 57.6713 22.31 58.0313 22.07C58.4013 21.83 58.6663 21.52 58.8263 21.14V18.98L56.8163 19.34C56.2763 19.44 55.8613 19.61 55.5713 19.85C55.2913 20.09 55.1513 20.435 55.1513 20.885C55.1513 21.385 55.3013 21.77 55.6013 22.04C55.9113 22.3 56.2813 22.43 56.7113 22.43ZM64.4567 12.815C64.3667 12.975 64.2267 13.145 64.0367 13.325C63.8467 13.495 63.6767 13.615 63.5267 13.685C63.3767 13.615 63.2067 13.495 63.0167 13.325C62.8267 13.145 62.6817 12.975 62.5817 12.815C62.6817 12.645 62.8267 12.47 63.0167 12.29C63.2067 12.11 63.3767 11.98 63.5267 11.9C63.6767 11.98 63.8467 12.11 64.0367 12.29C64.2367 12.47 64.3767 12.645 64.4567 12.815ZM62.8967 15.425C63.0667 15.335 63.2517 15.27 63.4517 15.23C63.6617 15.19 63.8717 15.17 64.0817 15.17V22.88C63.9417 22.96 63.7567 23.015 63.5267 23.045C63.3067 23.085 63.0967 23.105 62.8967 23.105V15.425ZM67.5854 18.815C67.5854 19.445 67.6604 19.995 67.8104 20.465C67.9704 20.935 68.1754 21.33 68.4254 21.65C68.6854 21.96 68.9804 22.195 69.3104 22.355C69.6504 22.515 70.0054 22.595 70.3754 22.595C71.1754 22.595 71.7854 22.33 72.2054 21.8C72.6254 21.26 72.8354 20.45 72.8354 19.37C72.8354 18.85 72.7754 18.365 72.6554 17.915C72.5354 17.465 72.3554 17.075 72.1154 16.745C71.8854 16.415 71.6004 16.155 71.2604 15.965C70.9204 15.775 70.5304 15.68 70.0904 15.68C69.7704 15.68 69.4604 15.74 69.1604 15.86C68.8604 15.98 68.5954 16.17 68.3654 16.43C68.1354 16.68 67.9454 17.005 67.7954 17.405C67.6554 17.795 67.5854 18.265 67.5854 18.815ZM66.3254 19.28C66.3254 18.67 66.4354 18.105 66.6554 17.585C66.8754 17.055 67.1704 16.605 67.5404 16.235C67.9204 15.855 68.3604 15.56 68.8604 15.35C69.3704 15.13 69.9104 15.02 70.4804 15.02C71.1004 15.02 71.6354 15.125 72.0854 15.335C72.5454 15.545 72.9204 15.825 73.2104 16.175C73.5104 16.525 73.7304 16.935 73.8704 17.405C74.0204 17.875 74.0954 18.37 74.0954 18.89C74.0954 19.5 74.0004 20.07 73.8104 20.6C73.6204 21.13 73.3454 21.595 72.9854 21.995C72.6354 22.385 72.2054 22.695 71.6954 22.925C71.1854 23.155 70.6054 23.27 69.9554 23.27C69.4754 23.27 69.0154 23.18 68.5754 23C68.1354 22.82 67.7454 22.56 67.4054 22.22C67.0754 21.88 66.8104 21.465 66.6104 20.975C66.4204 20.475 66.3254 19.91 66.3254 19.28Z" fill="black"/>
</svg>
