<svg width="1645" height="602" viewBox="0 0 1645 602" fill="none" xmlns="http://www.w3.org/2000/svg">
<path d="M1638.64 600.392L1639.05 422.255L1092.75 309.814L1639.53 211.172L1641.07 21.9955" stroke="black" stroke-linecap="square"/>
<line y1="-0.5" x2="408.611" y2="-0.5" transform="matrix(0.584075 0.811711 -0.957578 0.288156 117.768 265.929)" stroke="black"/>
<line y1="-0.5" x2="1282.11" y2="-0.5" transform="matrix(-0.999998 -0.00219659 0.00217723 -0.999998 1638.53 600.418)" stroke="black"/>
<path d="M1639.79 22.2241L205.847 17.3291" stroke="black" stroke-linecap="square"/>
<path d="M116.754 265.887C131.986 268.226 148.233 267.337 164.567 263.269C180.902 259.202 197.003 252.036 211.953 242.181C226.903 232.327 240.407 219.976 251.696 205.834C262.985 191.692 271.837 176.036 277.747 159.76C283.657 143.484 286.509 126.907 286.139 110.975C285.77 95.0429 282.187 80.0679 275.595 66.9051C269.003 53.7422 259.531 42.6493 247.72 34.2597C235.909 25.8701 221.99 20.348 206.758 18.0089L206.204 19.5342C221.248 21.8445 234.996 27.2986 246.662 35.585C258.328 43.8714 267.683 54.8278 274.194 67.8286C280.705 80.8295 284.244 95.6202 284.609 111.356C284.973 127.092 282.157 143.466 276.32 159.541C270.483 175.617 261.74 191.08 250.589 205.048C239.439 219.016 226.101 231.214 211.335 240.948C196.57 250.681 180.666 257.759 164.533 261.776C148.4 265.794 132.352 266.672 117.308 264.362L116.754 265.887Z" fill="#696969"/>
</svg>
