<svg width="205" height="171" viewBox="0 0 205 171" fill="none" xmlns="http://www.w3.org/2000/svg">
<path d="M192.929 82.3076L191.791 79.1064L177.956 81.3717L179.093 84.5729L192.929 82.3076Z" fill="#696969"/>
<rect width="3.39728" height="14.0199" transform="matrix(-0.334805 -0.942287 -0.98686 0.161579 175.342 85.019)" fill="#696969"/>
<rect width="3.39728" height="14.0199" transform="matrix(-0.334805 -0.942287 -0.98686 0.161579 158.82 88.188)" fill="#696969"/>
<rect width="3.39728" height="14.0199" transform="matrix(-0.334805 -0.942287 -0.98686 0.161579 142.713 90.394)" fill="#696969"/>
<rect width="3.53491" height="13.4825" transform="matrix(-0.527173 -0.849758 -0.931338 0.364155 126.376 93.1328)" fill="#696969"/>
<rect width="3.76437" height="12.4832" transform="matrix(-0.840802 -0.541344 -0.600976 0.799267 112.259 100.372)" fill="#696969"/>
<rect width="3.76437" height="12.4832" transform="matrix(-0.840802 -0.541344 -0.600976 0.799267 204.462 70.2056)" fill="#696969"/>
<rect width="3.68298" height="12.8538" transform="matrix(-0.999187 -0.0403248 0.100964 0.99489 104.581 112.363)" fill="#696969"/>
<rect width="3.17489" height="14.8053" transform="matrix(-0.611749 0.791052 0.835547 0.549419 108.151 127.583)" fill="#696969"/>
<rect width="3.37436" height="14.1054" transform="matrix(0.298969 0.954263 0.991773 -0.128008 122.21 136.873)" fill="#696969"/>
<rect width="3.76011" height="12.5031" transform="matrix(0.832626 0.553836 0.617608 -0.786486 138.711 133.329)" fill="#696969"/>
<rect width="3.61971" height="13.1293" transform="matrix(0.997503 -0.0706239 -0.234913 -0.972016 146.338 121.872)" fill="#696969"/>
<rect width="3.25012" height="14.5503" transform="matrix(0.769257 -0.63894 -0.735847 -0.677148 141.346 105.764)" fill="#696969"/>
<rect width="3.16993" height="14.8218" transform="matrix(0.594795 -0.803877 -0.843749 -0.536737 127.937 94.1206)" fill="#696969"/>
<rect width="3.15403" height="14.8743" transform="matrix(0.258649 -0.965971 -0.953527 -0.301309 112.1 84.7734)" fill="#696969"/>
<rect width="3.2324" height="14.6113" transform="matrix(-0.0241449 -0.999709 -0.995029 -0.0995893 95.1943 79.5942)" fill="#696969"/>
<rect width="3.37232" height="14.1129" transform="matrix(-0.295703 -0.95528 -0.992156 0.125003 77.7744 78.5513)" fill="#696969"/>
<rect width="3.51188" height="13.5754" transform="matrix(-0.496931 -0.86779 -0.944171 0.329457 61.4346 81.3022)" fill="#696969"/>
<rect width="3.51188" height="13.5754" transform="matrix(-0.496931 -0.86779 -0.944171 0.329457 45.3047 86.9209)" fill="#696969"/>
<rect width="3.58418" height="13.2795" transform="matrix(-0.590474 -0.807057 -0.897616 0.440779 30.7705 91.769)" fill="#696969"/>
<rect width="3.30781" height="14.3475" rx="1" transform="matrix(-0.18456 -0.982821 -0.999619 0.027614 19.2393 102.649)" fill="#696969"/>
<rect width="3.73113" height="12.6369" rx="1" transform="matrix(-0.989833 -0.142239 -0.033207 0.999449 8.56836 90.5146)" fill="#696969"/>
<rect width="3.74099" height="12.5917" rx="1" transform="matrix(-0.799947 -0.600071 -0.677317 0.735691 15.7002 94.5)" fill="#696969"/>
<path d="M166.536 72.2648C168.853 73.747 171.854 73.4431 173.238 71.5862C174.622 69.7292 173.866 67.0223 171.55 65.5402C169.233 64.058 166.232 64.3618 164.848 66.2188C163.464 68.0757 164.22 70.7826 166.536 72.2648ZM170.164 67.3993C171.199 68.062 171.537 69.2721 170.918 70.1022C170.3 70.9324 168.958 71.0682 167.922 70.4056C166.887 69.743 166.549 68.5329 167.168 67.7027C167.786 66.8726 169.128 66.7367 170.164 67.3993Z" fill="#FCD074"/>
<path d="M155.917 65.4748C158.234 66.9569 161.235 66.6531 162.619 64.7961C164.003 62.9392 163.247 60.2323 160.93 58.7501C158.614 57.2679 155.613 57.5718 154.229 59.4287C152.844 61.2857 153.6 63.9926 155.917 65.4748ZM159.544 60.6093C160.58 61.2719 160.918 62.482 160.299 63.3122C159.68 64.1423 158.339 64.2782 157.303 63.6156C156.268 62.953 155.93 61.7428 156.548 60.9127C157.167 60.0825 158.509 59.9467 159.544 60.6093Z" fill="#FCD074"/>
<rect width="16.9315" height="4.42137" rx="2.21069" transform="matrix(-0.436313 0.885628 0.912283 0.431244 154.368 73.7642)" fill="#6493B6"/>
<rect width="17.0148" height="4.40607" rx="2.20304" transform="matrix(-0.79354 0.636924 0.717481 0.677707 154.602 73.2207)" fill="#6493B6"/>
<rect width="13.5698" height="4.15655" rx="2.07828" transform="matrix(-0.196796 0.952664 0.984824 0.26782 156.008 63.644)" fill="#FCD074"/>
<rect width="13.2695" height="3.79523" rx="1.89761" transform="matrix(-0.927845 0.446231 0.570376 0.791609 165.488 68.8818)" fill="#FCD074"/>
</svg>
