<svg width="196" height="196" viewBox="0 0 196 196" fill="none" xmlns="http://www.w3.org/2000/svg">
<rect width="3.54615" height="13.2483" transform="matrix(-0.462448 0.886646 0.960091 0.27969 11.3115 65.686)" fill="#696969"/>
<rect width="3.54615" height="13.2483" transform="matrix(-0.462448 0.886646 0.960091 0.27969 27.3711 70.5801)" fill="#696969"/>
<rect width="3.54615" height="13.2483" transform="matrix(-0.462448 0.886646 0.960091 0.27969 42.9102 74.5864)" fill="#696969"/>
<rect width="3.54615" height="13.2483" transform="matrix(-0.462448 0.886646 0.960091 0.27969 57.3594 79.2319)" fill="#696969"/>
<rect width="3.39703" height="13.8404" transform="matrix(-0.267928 0.963439 0.997538 0.0701336 72.4121 83.5234)" fill="#696969"/>
<rect width="3.11803" height="14.8228" transform="matrix(0.283296 0.959033 0.933247 -0.359235 89.292 83.165)" fill="#696969"/>
<rect width="3.22179" height="14.475" transform="matrix(0.865265 0.501314 0.629632 -0.776893 104.913 76.3125)" fill="#696969"/>
<rect width="3.76315" height="12.2861" transform="matrix(0.936604 -0.350389 -0.270056 -0.962845 114.14 62.0728)" fill="#696969"/>
<rect width="3.56982" height="13.1495" transform="matrix(0.492002 -0.870594 -0.948815 -0.315831 110.378 48.5435)" fill="#696969"/>
<rect width="3.12361" height="14.8046" transform="matrix(-0.262777 -0.964857 -0.938414 0.345512 94.5508 44.8481)" fill="#696969"/>
<rect width="3.29869" height="14.2041" transform="matrix(-0.925637 -0.378412 -0.540873 0.841104 79.4668 51.3989)" fill="#696969"/>
<rect width="3.6928" height="12.6124" transform="matrix(-0.980374 0.197148 0.0509019 0.998704 70.6133 66.8833)" fill="#696969"/>
<rect width="3.76769" height="12.2645" transform="matrix(-0.931304 0.364242 0.290809 0.956781 71.9736 82.0825)" fill="#696969"/>
<rect width="3.78214" height="12.1954" transform="matrix(-0.808941 0.58789 0.626851 0.779139 77.0547 96.312)" fill="#696969"/>
<rect width="3.70964" height="12.5356" transform="matrix(-0.674002 0.73873 0.823653 0.567094 86.3369 107.569)" fill="#696969"/>
<rect width="3.57191" height="13.1407" transform="matrix(-0.494613 0.869114 0.947726 0.319085 99.2607 115.497)" fill="#696969"/>
<rect width="3.42285" height="13.7415" transform="matrix(-0.30334 0.952882 0.994473 0.104994 114.326 119.78)" fill="#696969"/>
<rect width="3.42285" height="13.7415" transform="matrix(-0.30334 0.952882 0.994473 0.104994 131.524 121.621)" fill="#696969"/>
<rect width="3.34054" height="14.0518" transform="matrix(-0.186309 0.982491 0.999985 -0.00557156 146.812 123.389)" fill="#696969"/>
<rect width="3.68852" height="12.6318" rx="1" transform="matrix(-0.644289 0.764782 0.852492 0.52274 183.263 114.025)" fill="#696969"/>
<rect width="3.12282" height="14.8071" rx="1" transform="matrix(0.712203 0.701974 0.760544 -0.649286 180.526 128.677)" fill="#696969"/>
<rect width="3.19495" height="14.5668" rx="1" transform="matrix(0.0713053 0.997455 0.97724 -0.212136 178.8 122.143)" fill="#696969"/>
<rect width="3.34054" height="14.0518" transform="matrix(-0.186309 0.982491 0.999985 -0.00557156 164.058 122.813)" fill="#696969"/>
<path d="M17.0478 80.5844C16.5296 78.8569 14.4624 78.0959 12.4305 78.8847C10.3987 79.6736 9.17155 81.7134 9.68971 83.4409C10.2079 85.1684 12.2751 85.9294 14.307 85.1406C16.3388 84.3518 17.5659 82.3119 17.0478 80.5844ZM11.724 82.6512C11.4924 81.8789 12.041 80.967 12.9493 80.6143C13.8577 80.2617 14.7818 80.6019 15.0134 81.3741C15.2451 82.1464 14.6965 83.0584 13.7882 83.411C12.8798 83.7636 11.9557 83.4234 11.724 82.6512Z" fill="#FCD074"/>
<path d="M19.4188 88.4901C18.9007 86.7626 16.8335 86.0017 14.8016 86.7905C12.7697 87.5793 11.5426 89.6192 12.0608 91.3467C12.579 93.0742 14.6462 93.8351 16.678 93.0463C18.7099 92.2575 19.937 90.2176 19.4188 88.4901ZM14.0951 90.5569C13.8635 89.7847 14.4121 88.8727 15.3204 88.5201C16.2287 88.1674 17.1529 88.5076 17.3845 89.2799C17.6162 90.0522 17.0676 90.9641 16.1593 91.3168C15.2509 91.6694 14.3268 91.3292 14.0951 90.5569Z" fill="#FCD074"/>
<rect width="15.7998" height="2.92455" rx="1.46228" transform="matrix(0.888393 -0.480141 -0.453105 -0.8754 25.6152 83.52)" fill="#6493B6"/>
<rect width="15.7388" height="2.94096" rx="1.47048" transform="matrix(0.968889 -0.181942 -0.0346275 -1.01904 25.0889 83.7402)" fill="#6493B6"/>
<rect width="12.1974" height="2.85749" rx="1.42874" transform="matrix(0.802477 -0.633472 -0.651235 -0.718298 18.2305 89.707)" fill="#FCD074"/>
<rect width="11.7289" height="2.65435" rx="1.32718" transform="matrix(0.973495 0.00159379 0.20076 -1.01319 15.585 83.1777)" fill="#FCD074"/>
</svg>
